<svg xmlns="http://www.w3.org/2000/svg" viewBox="0 0 223.462 223.462"><defs><style>.a,.g{fill:none;}.a{stroke:#e6e6e6;stroke-width:5px;}.b{fill:#ff9494;}.c{fill:#ffd7d7;}.d{fill:#fff;}.e{fill:#df0000;}.f{stroke:none;}</style></defs><g transform="translate(7.071 7.071)"><g class="a" transform="translate(104.66 0) rotate(45)"><rect class="f" width="148.011" height="148.011"/><rect class="g" x="-2.5" y="-2.5" width="153.011" height="153.011"/></g><g class="a" transform="translate(104.66 0) rotate(45)"><rect class="f" width="148.011" height="148.011"/><rect class="g" x="-2.5" y="-2.5" width="153.011" height="153.011"/></g><g transform="translate(32.229 31.457)"><rect class="b" width="143.269" height="13.645" transform="translate(1.137 130.761)"/><rect class="c" width="143.269" height="61.402" transform="translate(1.137 69.36)"/><g transform="translate(5.685 73.908)"><path class="c" d="M372.591,259.731H331.657v52.3h40.934a4.534,4.534,0,0,1,4.548-4.548V264.279A4.534,4.534,0,0,1,372.591,259.731Z" transform="translate(-242.967 -259.731)"/><path class="c" d="M60.914,259.73H24.528a4.533,4.533,0,0,1-4.548,4.548v43.208a4.533,4.533,0,0,1,4.548,4.548H65.462v-52.3Z" transform="translate(-19.98 -259.73)"/></g><path class="c" d="M147.265,65.4H4V4H147.265ZM13.092,8.544a4.533,4.533,0,0,1-4.548,4.548V56.3a4.533,4.533,0,0,1,4.548,4.548H138.168a4.532,4.532,0,0,1,4.548-4.548V13.092a4.532,4.532,0,0,1-4.548-4.548H13.092Z" transform="translate(-2.859 -2.859)"/><path class="b" d="M213.958,42.785S195.242,38.851,196.9,56.43v.228a14.8,14.8,0,0,0,3.433,9.028h-.022V68.46c0,1.137-4.616,3.07-7.141,4.025h-.022a13.827,13.827,0,0,1-.864-1.092A23.11,23.11,0,0,1,187.8,57.567c0-11.939,8.665-21.6,19.33-21.6s19.33,9.665,19.33,21.6a22.888,22.888,0,0,1-5.343,14.918c-2.5-.955-7.164-2.888-7.164-4.025V65.685h-.022a14.809,14.809,0,0,0,3.433-9.028V56.43c1.615-10.461-3.98-11.325-3.98-11.325S210.841,44.059,213.958,42.785Z" transform="translate(-134.364 -25.729)"/><path class="c" d="M227.451,143.188c0,1.137,4.662,3.07,7.164,4.025a17.949,17.949,0,0,1-27.95,0c2.525-.955,7.141-2.888,7.141-4.025v-2.775h.022c2.093,2.662,4.776,4.389,6.8,4.389s4.708-1.728,6.8-4.389h.022v2.775Z" transform="translate(-147.857 -100.457)"/><path class="d" d="M216.079,145.463v-2.735a15.363,15.363,0,0,1-2.252-2.314h-.022v2.775c0,1.137-4.616,3.07-7.141,4.025a20.219,20.219,0,0,0,2.294,2.267C211.488,148.523,216.079,146.6,216.079,145.463Z" transform="translate(-147.856 -100.458)"/><g transform="translate(62.434 16.68)"><path class="c" d="M271.718,145.463v-2.735a15.3,15.3,0,0,0,2.252-2.314h.022v2.775c0,1.137,4.615,3.07,7.142,4.025a20.308,20.308,0,0,1-2.3,2.267C276.311,148.523,271.718,146.6,271.718,145.463Z" transform="translate(-256.832 -117.138)"/><path class="c" d="M239.977,72.637l-3.456-6.572a14.309,14.309,0,0,1-6.823,1.592,13.81,13.81,0,0,1-6.731-1.592l-3.457,6.572c-1.66-17.579,17.056-13.645,17.056-13.645-3.116,1.274-.569,2.319-.569,2.319S241.592,62.176,239.977,72.637Z" transform="translate(-219.406 -58.616)"/></g><path class="b" d="M275.5,69.432h-2.276c1.235.67,3.185,2.464,3.262,7.15l1.994,3.793C279.654,72.776,277.029,70.25,275.5,69.432Z" transform="translate(-195.477 -49.675)"/><g transform="translate(62.434 16.681)"><path class="c" d="M233.626,58.654c-5.2-.275-15.357.835-14.115,13.985L221.9,68.1C222.987,60.607,229.041,58.854,233.626,58.654Z" transform="translate(-219.407 -58.62)"/><path class="c" d="M229.961,86.383a14.309,14.309,0,0,0,6.823-1.592l3.456,6.572v.228a14.81,14.81,0,0,1-3.433,9.028c-2.092,2.662-4.776,4.389-6.8,4.389s-4.707-1.728-6.8-4.389a14.8,14.8,0,0,1-3.433-9.028v-.228l3.457-6.572A13.8,13.8,0,0,0,229.961,86.383Z" transform="translate(-219.669 -77.344)"/></g><path class="c" d="M259.654,84.792a10.39,10.39,0,0,1-1.854.8l3.036,5.775v.228a14.81,14.81,0,0,1-3.433,9.028,11.766,11.766,0,0,1-5.663,4.213,4.533,4.533,0,0,0,1.137.176c2.024,0,4.708-1.728,6.8-4.389a14.81,14.81,0,0,0,3.433-9.028v-.228Z" transform="translate(-180.105 -60.664)"/><path class="d" d="M225.48,100.619a14.8,14.8,0,0,1-3.433-9.028v-.228L225.08,85.6a10.113,10.113,0,0,1-1.85-.807l-3.457,6.572v.228a14.8,14.8,0,0,0,3.433,9.028c2.093,2.662,4.776,4.389,6.8,4.389a4.532,4.532,0,0,0,1.137-.176A11.766,11.766,0,0,1,225.48,100.619Z" transform="translate(-157.235 -60.663)"/><g transform="translate(1.137 1.137)"><path class="c" d="M149.6,19.979H24.528a4.533,4.533,0,0,1-4.548,4.548V67.735a4.533,4.533,0,0,1,4.548,4.548H149.6a4.532,4.532,0,0,1,4.548-4.548V24.527A4.532,4.532,0,0,1,149.6,19.979ZM101.053,61.05a17.949,17.949,0,0,1-27.95,0H73.08a13.833,13.833,0,0,1-.864-1.092,23.11,23.11,0,0,1-4.481-13.827c0-11.939,8.665-21.6,19.33-21.6s19.33,9.665,19.33,21.6A22.889,22.889,0,0,1,101.053,61.05Z" transform="translate(-15.432 -15.431)"/><rect class="c" width="143.269" height="2.274"/></g><rect class="b" width="143.269" height="2.274" transform="translate(1.137 60.265)"/><g transform="translate(1.137 3.411)"><rect class="c" width="143.269" height="2.274" transform="translate(0 65.948)"/><rect class="c" width="2.274" height="56.852"/></g><g transform="translate(1.137 3.411)"><rect class="b" width="2.274" height="56.852" transform="translate(140.995)"/><rect class="b" width="143.269" height="2.274" transform="translate(0 125.077)"/></g><rect class="c" width="2.274" height="56.852" transform="translate(1.137 71.633)"/><rect class="b" width="2.274" height="56.852" transform="translate(142.132 71.633)"/><path class="d" d="M204.829,243.748H179.814v75.046h43.208V243.748Z" transform="translate(-128.646 -174.388)"/><rect class="c" width="43.207" height="13.645" transform="translate(51.168 130.761)"/><path class="e" d="M65.281,66.208a1.147,1.147,0,0,1-1.148-1.137,1.127,1.127,0,0,1,1.126-1.137h.022a1.137,1.137,0,1,1,0,2.274Z" transform="translate(-45.883 -45.741)"/><path class="e" d="M81.264,66.208a1.147,1.147,0,0,1-1.148-1.137,1.127,1.127,0,0,1,1.126-1.137h.022a1.137,1.137,0,1,1,0,2.274Z" transform="translate(-57.318 -45.741)"/><path class="e" d="M97.247,66.208A1.147,1.147,0,0,1,96.1,65.071a1.127,1.127,0,0,1,1.126-1.137h.022a1.137,1.137,0,1,1,0,2.274Z" transform="translate(-68.753 -45.741)"/><path class="e" d="M113.231,66.208a1.147,1.147,0,0,1-1.148-1.137,1.127,1.127,0,0,1,1.126-1.137h.022a1.137,1.137,0,1,1,0,2.274Z" transform="translate(-80.189 -45.741)"/><path class="e" d="M129.214,66.208a1.147,1.147,0,0,1-1.148-1.137,1.127,1.127,0,0,1,1.126-1.137h.022a1.137,1.137,0,1,1,0,2.274Z" transform="translate(-91.624 -45.741)"/><path class="e" d="M145.2,66.208a1.147,1.147,0,0,1-1.148-1.137,1.127,1.127,0,0,1,1.126-1.137h.022a1.137,1.137,0,1,1,0,2.274Z" transform="translate(-103.059 -45.741)"/><path class="e" d="M360.979,66.208a1.146,1.146,0,0,1-1.148-1.137,1.126,1.126,0,0,1,1.124-1.137h.024a1.137,1.137,0,0,1,0,2.274Z" transform="translate(-257.438 -45.741)"/><path class="e" d="M376.962,66.208a1.146,1.146,0,0,1-1.148-1.137,1.126,1.126,0,0,1,1.124-1.137h.025a1.137,1.137,0,0,1,0,2.274Z" transform="translate(-268.873 -45.741)"/><path class="e" d="M392.946,66.208a1.146,1.146,0,0,1-1.148-1.137,1.126,1.126,0,0,1,1.124-1.137h.024a1.137,1.137,0,1,1,0,2.274Z" transform="translate(-280.309 -45.741)"/><path class="e" d="M408.929,66.208a1.146,1.146,0,0,1-1.148-1.137,1.126,1.126,0,0,1,1.124-1.137h.025a1.137,1.137,0,0,1,0,2.274Z" transform="translate(-291.744 -45.741)"/><path class="e" d="M424.912,66.208a1.146,1.146,0,0,1-1.148-1.137,1.126,1.126,0,0,1,1.124-1.137h.025a1.137,1.137,0,1,1,0,2.274Z" transform="translate(-303.179 -45.741)"/><path class="e" d="M440.9,66.208a1.146,1.146,0,0,1-1.148-1.137,1.126,1.126,0,0,1,1.124-1.137h.024a1.137,1.137,0,1,1,0,2.274Z" transform="translate(-314.614 -45.741)"/><path class="e" d="M65.281,305.96a1.147,1.147,0,0,1-1.148-1.137,1.127,1.127,0,0,1,1.126-1.137h.022a1.137,1.137,0,1,1,0,2.274Z" transform="translate(-45.883 -217.27)"/><path class="e" d="M81.264,305.96a1.147,1.147,0,0,1-1.148-1.137,1.127,1.127,0,0,1,1.126-1.137h.022a1.137,1.137,0,1,1,0,2.274Z" transform="translate(-57.318 -217.27)"/><path class="e" d="M97.247,305.96a1.147,1.147,0,0,1-1.148-1.137,1.127,1.127,0,0,1,1.126-1.137h.022a1.137,1.137,0,1,1,0,2.274Z" transform="translate(-68.753 -217.27)"/><path class="e" d="M113.231,305.96a1.147,1.147,0,0,1-1.148-1.137,1.127,1.127,0,0,1,1.126-1.137h.022a1.137,1.137,0,1,1,0,2.274Z" transform="translate(-80.189 -217.27)"/><path class="e" d="M129.214,305.96a1.147,1.147,0,0,1-1.148-1.137,1.127,1.127,0,0,1,1.126-1.137h.022a1.137,1.137,0,1,1,0,2.274Z" transform="translate(-91.624 -217.27)"/><path class="e" d="M145.2,305.96a1.147,1.147,0,0,1-1.148-1.137,1.127,1.127,0,0,1,1.126-1.137h.022a1.137,1.137,0,1,1,0,2.274Z" transform="translate(-103.059 -217.27)"/><path class="e" d="M360.979,305.96a1.146,1.146,0,0,1-1.148-1.137,1.126,1.126,0,0,1,1.124-1.137h.024a1.137,1.137,0,0,1,0,2.274Z" transform="translate(-257.438 -217.27)"/><path class="e" d="M376.962,305.96a1.146,1.146,0,0,1-1.148-1.137,1.126,1.126,0,0,1,1.124-1.137h.025a1.137,1.137,0,0,1,0,2.274Z" transform="translate(-268.873 -217.27)"/><path class="e" d="M392.946,305.96a1.146,1.146,0,0,1-1.148-1.137,1.126,1.126,0,0,1,1.124-1.137h.024a1.137,1.137,0,1,1,0,2.274Z" transform="translate(-280.309 -217.27)"/><path class="e" d="M408.929,305.96a1.146,1.146,0,0,1-1.148-1.137,1.126,1.126,0,0,1,1.124-1.137h.025a1.137,1.137,0,0,1,0,2.274Z" transform="translate(-291.744 -217.27)"/><path class="e" d="M424.912,305.96a1.146,1.146,0,0,1-1.148-1.137,1.126,1.126,0,0,1,1.124-1.137h.025a1.137,1.137,0,1,1,0,2.274Z" transform="translate(-303.179 -217.27)"/><path class="e" d="M440.9,305.96a1.146,1.146,0,0,1-1.148-1.137,1.126,1.126,0,0,1,1.124-1.137h.024a1.137,1.137,0,1,1,0,2.274Z" transform="translate(-314.614 -217.27)"/><path class="e" d="M146.744,70.563H21.668a1.137,1.137,0,0,1-1.137-1.137,3.415,3.415,0,0,0-3.411-3.411,1.137,1.137,0,0,1-1.137-1.137V21.669a1.136,1.136,0,0,1,1.137-1.137,3.415,3.415,0,0,0,3.411-3.411,1.137,1.137,0,0,1,1.137-1.137H146.744a1.137,1.137,0,0,1,1.137,1.137,3.415,3.415,0,0,0,3.411,3.411,1.136,1.136,0,0,1,1.137,1.137V64.877a1.136,1.136,0,0,1-1.137,1.137,3.415,3.415,0,0,0-3.411,3.411A1.137,1.137,0,0,1,146.744,70.563ZM22.691,68.289h123.03a5.706,5.706,0,0,1,4.435-4.434V22.692a5.705,5.705,0,0,1-4.435-4.434H22.691a5.7,5.7,0,0,1-4.434,4.434V63.854A5.7,5.7,0,0,1,22.691,68.289Z" transform="translate(-11.435 -11.436)"/><path class="e" d="M144.406,63.675H1.137A1.137,1.137,0,0,1,0,62.538V1.137A1.137,1.137,0,0,1,1.137,0H144.406a1.136,1.136,0,0,1,1.137,1.137v61.4A1.136,1.136,0,0,1,144.406,63.675ZM2.274,61.4H143.269V2.274H2.274Z"/><path class="e" d="M227.147,120.384c-2.406,0-5.354-1.849-7.694-4.824a15.775,15.775,0,0,1-3.676-9.73,1.137,1.137,0,0,1,2.274,0,13.7,13.7,0,0,0,3.182,8.315c1.868,2.376,4.242,3.965,5.914,3.965,1.647,0,4.075-1.627,5.905-3.955a13.706,13.706,0,0,0,3.191-8.325,1.137,1.137,0,1,1,2.274,0,15.789,15.789,0,0,1-3.684,9.74C232.5,118.535,229.555,120.384,227.147,120.384Z" transform="translate(-154.376 -74.902)"/><path class="e" d="M284.015,152.468a1.138,1.138,0,0,1-.406-.075c-7.9-3.012-7.9-4.312-7.9-5.088a1.137,1.137,0,0,1,2.252-.22c.346.4,2.05,1.5,6.456,3.182a1.138,1.138,0,0,1-.406,2.2Z" transform="translate(-197.257 -104.575)"/><path class="e" d="M276.852,141.467a1.136,1.136,0,0,1-1.137-1.137v-2.775a1.137,1.137,0,1,1,2.274,0v2.775A1.136,1.136,0,0,1,276.852,141.467Z" transform="translate(-197.258 -97.599)"/><path class="e" d="M203.805,152.468a1.137,1.137,0,0,1-.4-2.2c4.085-1.545,6.039-2.717,6.426-3.177a1.137,1.137,0,0,1,2.254.215c0,.737,0,2.11-7.876,5.089A1.139,1.139,0,0,1,203.805,152.468Z" transform="translate(-144.997 -104.575)"/><path class="e" d="M228.9,141.467a1.136,1.136,0,0,1-1.137-1.137v-2.775a1.137,1.137,0,0,1,2.274,0v2.775A1.137,1.137,0,0,1,228.9,141.467Z" transform="translate(-162.952 -97.599)"/><path class="e" d="M204.277,77.449A19.292,19.292,0,0,1,189.563,70.5a1.169,1.169,0,0,1-.131-.127c-.32-.37-.64-.764-.934-1.181a24.358,24.358,0,0,1-4.688-14.482c0-12.54,9.182-22.741,20.467-22.741s20.467,10.2,20.467,22.741a23.963,23.963,0,0,1-5.619,15.659A19.407,19.407,0,0,1,204.277,77.449Zm-13.235-8.694a1.161,1.161,0,0,1,.138.135,16.812,16.812,0,0,0,26.22,0,21.706,21.706,0,0,0,5.07-14.179c0-11.285-8.161-20.467-18.193-20.467s-18.193,9.182-18.193,20.467a22.1,22.1,0,0,0,4.255,13.147C190.571,68.184,190.807,68.478,191.042,68.755Z" transform="translate(-131.505 -22.871)"/><path class="e" d="M216.653,70.868a1.134,1.134,0,0,1-1.131-1.03c-.456-4.826.521-8.6,2.9-11.22,5.31-5.833,15.332-3.684,15.517-3.644a1.137,1.137,0,0,1,.2,2.165c-.2.082-.36.157-.484.222,1.364.385,6.143,2.472,4.588,12.543a1.137,1.137,0,0,1-2.13.357l-2.945-5.6a16.494,16.494,0,0,1-6.328,1.229,16.033,16.033,0,0,1-6.239-1.222l-2.943,5.6A1.135,1.135,0,0,1,216.653,70.868Zm17.011-8.845a1.122,1.122,0,0,1,.309.043,1.14,1.14,0,0,1,.7.563l1.6,3.046c-.175-5.585-3.266-6.139-3.3-6.145a1.088,1.088,0,0,1-.258-.072c-.282-.115-1.688-.758-1.688-2.065a1.743,1.743,0,0,1,.071-.489c-2.937-.207-8.013-.023-10.985,3.246a9.288,9.288,0,0,0-2.2,4.748l1.192-2.268a1.139,1.139,0,0,1,.705-.566,1.118,1.118,0,0,1,.9.126,12.9,12.9,0,0,0,6.136,1.425,13.4,13.4,0,0,0,6.244-1.434A1.153,1.153,0,0,1,233.665,62.023Z" transform="translate(-154.115 -39.031)"/><path class="e" d="M62.764,101.553a6.822,6.822,0,1,1,6.822-6.822A6.83,6.83,0,0,1,62.764,101.553Zm0-11.37a4.548,4.548,0,1,0,4.548,4.548A4.553,4.553,0,0,0,62.764,90.182Z" transform="translate(-40.023 -62.893)"/><path class="e" d="M118.706,101.553a6.822,6.822,0,1,1,6.823-6.822A6.83,6.83,0,0,1,118.706,101.553Zm0-11.37a4.548,4.548,0,1,0,4.548,4.548A4.553,4.553,0,0,0,118.706,90.182Z" transform="translate(-80.047 -62.893)"/><path class="e" d="M133,101.554a1.136,1.136,0,0,1-1.137-1.137V89.046a1.137,1.137,0,1,1,2.274,0v11.371A1.136,1.136,0,0,1,133,101.554Z" transform="translate(-94.34 -62.894)"/><path class="e" d="M68.45,110.163H57.079a1.137,1.137,0,0,1,0-2.274h11.37a1.137,1.137,0,0,1,0,2.274Z" transform="translate(-40.023 -77.188)"/><path class="e" d="M84.369,154.117H57.08a1.137,1.137,0,0,1,0-2.274H84.369a1.137,1.137,0,0,1,0,2.274Z" transform="translate(-40.024 -108.635)"/><path class="e" d="M380.062,154.117H352.773a1.137,1.137,0,0,1,0-2.274h27.289a1.137,1.137,0,0,1,0,2.274Z" transform="translate(-251.575 -108.635)"/><path class="e" d="M360.765,101.554a1.136,1.136,0,0,1-1.137-1.137V89.046a1.137,1.137,0,1,1,2.274,0v11.371A1.136,1.136,0,0,1,360.765,101.554Z" transform="translate(-257.293 -62.894)"/><path class="e" d="M388.152,101.554a4.553,4.553,0,0,1-4.548-4.548V92.458a4.548,4.548,0,1,1,9.1,0v4.548A4.553,4.553,0,0,1,388.152,101.554Zm0-11.37a2.276,2.276,0,0,0-2.274,2.274v4.548a2.274,2.274,0,1,0,4.548,0V92.458A2.276,2.276,0,0,0,388.152,90.184Z" transform="translate(-274.446 -62.895)"/><path class="e" d="M428.11,101.554a4.553,4.553,0,0,1-4.548-4.548V92.458a4.548,4.548,0,1,1,9.1,0v4.548A4.553,4.553,0,0,1,428.11,101.554Zm0-11.37a2.276,2.276,0,0,0-2.274,2.274v4.548a2.274,2.274,0,1,0,4.548,0V92.458A2.276,2.276,0,0,0,428.11,90.184Z" transform="translate(-303.034 -62.895)"/><path class="e" d="M352.772,92.457a1.137,1.137,0,0,1-.8-1.941l2.274-2.274a1.137,1.137,0,0,1,1.608,1.608l-2.274,2.274A1.132,1.132,0,0,1,352.772,92.457Z" transform="translate(-251.575 -62.894)"/><path class="e" d="M357.321,130.142h-4.548a1.137,1.137,0,1,1,0-2.274h4.548a1.137,1.137,0,0,1,0,2.274Z" transform="translate(-251.575 -91.482)"/><path class="e" d="M21.668,310.314a1.137,1.137,0,0,1-1.137-1.137,3.415,3.415,0,0,0-3.411-3.411,1.137,1.137,0,0,1-1.137-1.137V261.42a1.137,1.137,0,0,1,1.137-1.137,3.415,3.415,0,0,0,3.411-3.411,1.137,1.137,0,0,1,2.274,0,5.7,5.7,0,0,1-4.548,5.57v41.165a5.7,5.7,0,0,1,4.548,5.57A1.136,1.136,0,0,1,21.668,310.314Z" transform="translate(-11.435 -182.964)"/><path class="e" d="M472.649,310.314a1.136,1.136,0,0,1-1.137-1.137,5.694,5.694,0,0,1,4.548-5.57V262.442a5.694,5.694,0,0,1-4.548-5.57,1.137,1.137,0,1,1,2.274,0,3.415,3.415,0,0,0,3.411,3.411,1.137,1.137,0,0,1,1.137,1.137v43.208a1.136,1.136,0,0,1-1.137,1.137,3.415,3.415,0,0,0-3.411,3.411A1.136,1.136,0,0,1,472.649,310.314Z" transform="translate(-337.339 -182.964)"/><path class="e" d="M62.764,341.3a6.822,6.822,0,1,1,6.822-6.822A6.83,6.83,0,0,1,62.764,341.3Zm0-11.37a4.548,4.548,0,1,0,4.548,4.548A4.552,4.552,0,0,0,62.764,329.934Z" transform="translate(-40.023 -234.422)"/><path class="e" d="M118.706,341.3a6.822,6.822,0,1,1,6.823-6.822A6.83,6.83,0,0,1,118.706,341.3Zm0-11.37a4.548,4.548,0,1,0,4.548,4.548A4.552,4.552,0,0,0,118.706,329.934Z" transform="translate(-80.047 -234.422)"/><path class="e" d="M133,341.306a1.136,1.136,0,0,1-1.137-1.137V328.8a1.137,1.137,0,0,1,2.274,0v11.371A1.136,1.136,0,0,1,133,341.306Z" transform="translate(-94.34 -234.422)"/><path class="e" d="M68.45,349.914H57.079a1.137,1.137,0,1,1,0-2.274h11.37a1.137,1.137,0,0,1,0,2.274Z" transform="translate(-40.023 -248.716)"/><path class="e" d="M84.369,393.87H57.08a1.137,1.137,0,1,1,0-2.274H84.369a1.137,1.137,0,1,1,0,2.274Z" transform="translate(-40.024 -280.164)"/><path class="e" d="M380.062,393.87H352.773a1.137,1.137,0,1,1,0-2.274h27.289a1.137,1.137,0,0,1,0,2.274Z" transform="translate(-251.575 -280.164)"/><path class="e" d="M360.765,341.306a1.136,1.136,0,0,1-1.137-1.137V328.8a1.137,1.137,0,0,1,2.274,0v11.371A1.136,1.136,0,0,1,360.765,341.306Z" transform="translate(-257.293 -234.422)"/><path class="e" d="M388.152,341.306a4.552,4.552,0,0,1-4.548-4.548V332.21a4.548,4.548,0,0,1,9.1,0v4.548A4.553,4.553,0,0,1,388.152,341.306Zm0-11.37a2.277,2.277,0,0,0-2.274,2.274v4.548a2.274,2.274,0,1,0,4.548,0V332.21A2.277,2.277,0,0,0,388.152,329.936Z" transform="translate(-274.446 -234.423)"/><path class="e" d="M428.11,341.306a4.553,4.553,0,0,1-4.548-4.548V332.21a4.548,4.548,0,0,1,9.1,0v4.548A4.552,4.552,0,0,1,428.11,341.306Zm0-11.37a2.277,2.277,0,0,0-2.274,2.274v4.548a2.274,2.274,0,1,0,4.548,0V332.21A2.277,2.277,0,0,0,428.11,329.936Z" transform="translate(-303.034 -234.423)"/><path class="e" d="M352.772,332.209a1.137,1.137,0,0,1-.8-1.941l2.274-2.274a1.137,1.137,0,0,1,1.608,1.608l-2.274,2.274A1.132,1.132,0,0,1,352.772,332.209Z" transform="translate(-251.575 -234.423)"/><path class="e" d="M357.321,369.894h-4.548a1.137,1.137,0,1,1,0-2.274h4.548a1.137,1.137,0,0,1,0,2.274Z" transform="translate(-251.575 -263.011)"/><path class="e" d="M48.893,473.787H1.137a1.137,1.137,0,1,1,0-2.274H48.893a1.137,1.137,0,1,1,0,2.274Z" transform="translate(0 -337.34)"/><path class="e" d="M48.893,489.77H1.137a1.137,1.137,0,1,1,0-2.274H48.893a1.137,1.137,0,1,1,0,2.274Z" transform="translate(0 -348.775)"/><path class="e" d="M48.893,505.753H1.137a1.137,1.137,0,1,1,0-2.274H48.893a1.137,1.137,0,1,1,0,2.274Z" transform="translate(0 -360.21)"/><path class="e" d="M384.546,473.787H336.79a1.137,1.137,0,0,1,0-2.274h47.757a1.137,1.137,0,0,1,0,2.274Z" transform="translate(-240.14 -337.34)"/><path class="e" d="M384.546,489.77H336.79a1.137,1.137,0,0,1,0-2.274h47.757a1.137,1.137,0,0,1,0,2.274Z" transform="translate(-240.14 -348.775)"/><path class="e" d="M384.546,505.753H336.79a1.137,1.137,0,0,1,0-2.274h47.757a1.137,1.137,0,0,1,0,2.274Z" transform="translate(-240.14 -360.21)"/><path class="e" d="M328.8,317.072a1.136,1.136,0,0,1-1.137-1.137V240.889a1.137,1.137,0,0,1,2.274,0v75.046A1.136,1.136,0,0,1,328.8,317.072Z" transform="translate(-234.422 -171.529)"/><path class="e" d="M220.163,505.753H176.955a1.137,1.137,0,1,1,0-2.274h43.208a1.137,1.137,0,1,1,0,2.274Z" transform="translate(-125.788 -360.21)"/><path class="e" d="M240.889,478.335a1.136,1.136,0,0,1-1.137-1.137V472.65a1.137,1.137,0,0,1,2.274,0V477.2A1.136,1.136,0,0,1,240.889,478.335Z" transform="translate(-171.529 -337.34)"/><path class="e" d="M264.864,478.335a1.136,1.136,0,0,1-1.137-1.137V472.65a1.137,1.137,0,0,1,2.274,0V477.2A1.136,1.136,0,0,1,264.864,478.335Z" transform="translate(-188.681 -337.34)"/><path class="e" d="M240.889,308.04a1.137,1.137,0,0,1-1.137-1.137V256.872a1.137,1.137,0,0,1,2.274,0V306.9A1.137,1.137,0,0,1,240.889,308.04Z" transform="translate(-171.529 -182.964)"/><path class="e" d="M264.864,308.04a1.137,1.137,0,0,1-1.137-1.137V256.872a1.137,1.137,0,1,1,2.274,0V306.9A1.137,1.137,0,0,1,264.864,308.04Z" transform="translate(-188.681 -182.964)"/><path class="e" d="M176.955,317.072a1.136,1.136,0,0,1-1.137-1.137V240.889a1.137,1.137,0,0,1,2.274,0v75.046A1.136,1.136,0,0,1,176.955,317.072Z" transform="translate(-125.788 -171.529)"/><path class="e" d="M71.764,441.82H33.1a1.137,1.137,0,1,1,0-2.274h38.66a1.137,1.137,0,1,1,0,2.274Z" transform="translate(-22.871 -314.47)"/><path class="e" d="M375.45,441.82H336.79a1.137,1.137,0,0,1,0-2.274h38.66a1.137,1.137,0,1,1,0,2.274Z" transform="translate(-240.14 -314.47)"/><path class="e" d="M48.893,457.8H1.137a1.137,1.137,0,1,1,0-2.274H48.893a1.137,1.137,0,1,1,0,2.274Z" transform="translate(0 -325.905)"/><path class="e" d="M48.893,242.026H1.137a1.137,1.137,0,0,1,0-2.274H48.893a1.137,1.137,0,0,1,0,2.274Z" transform="translate(0 -171.529)"/><path class="e" d="M384.546,457.8H336.79a1.137,1.137,0,0,1,0-2.274h47.757a1.137,1.137,0,0,1,0,2.274Z" transform="translate(-240.14 -325.905)"/><path class="e" d="M384.546,242.026H336.79a1.137,1.137,0,0,1,0-2.274h47.757a1.137,1.137,0,0,1,0,2.274Z" transform="translate(-240.14 -171.529)"/><path class="e" d="M1.137,303.427A1.136,1.136,0,0,1,0,302.29v-61.4a1.137,1.137,0,0,1,2.274,0v61.4A1.136,1.136,0,0,1,1.137,303.427Z" transform="translate(0 -171.529)"/><path class="e" d="M504.616,303.427a1.136,1.136,0,0,1-1.137-1.137v-61.4a1.137,1.137,0,1,1,2.274,0v61.4A1.136,1.136,0,0,1,504.616,303.427Z" transform="translate(-360.21 -171.529)"/><path class="e" d="M227.05,457.8H192.938a1.137,1.137,0,1,1,0-2.274H227.05a1.137,1.137,0,0,1,0,2.274Z" transform="translate(-137.222 -325.905)"/><path class="e" d="M220.163,242.026H176.955a1.137,1.137,0,0,1,0-2.274h43.208a1.137,1.137,0,0,1,0,2.274Z" transform="translate(-125.788 -171.529)"/><path class="e" d="M71.764,258.009H33.1a1.137,1.137,0,1,1,0-2.274h38.66a1.137,1.137,0,0,1,0,2.274Z" transform="translate(-22.871 -182.964)"/><path class="e" d="M375.45,258.009H336.79a1.137,1.137,0,0,1,0-2.274h38.66a1.137,1.137,0,1,1,0,2.274Z" transform="translate(-240.14 -182.964)"/></g></g></svg>