<svg xmlns="http://www.w3.org/2000/svg" viewBox="0 0 209.32 209.32"><defs><style>.a,.h{fill:none;}.a{stroke:#e6e6e6;stroke-width:5px;}.b{fill:#ff9494;}.c{fill:#ffd7d7;}.d{fill:#ff5c5c;}.e{fill:#fff;}.f{fill:#f11;}.g{stroke:none;}</style></defs><g class="a" transform="translate(104.66) rotate(45)"><rect class="g" width="148.011" height="148.011"/><rect class="h" x="2.5" y="2.5" width="143.011" height="143.011"/></g><g transform="translate(34.054 31.177)"><path class="b" d="M136.985,360.86c-8.544-2.837-29.648-10.128-29.648-14.18H54.881c0,4.051-21.105,11.343-29.649,14.18-9.123,3.027-13.684,6.077-13.684,14.18v12.154h139.12V375.04C150.669,366.937,146.108,363.887,136.985,360.86Z" transform="translate(-10.408 -242.622)"/><path class="c" d="M16.11,380.89c0-9.123,4.561-12.557,13.684-15.965,8.544-3.194,29.649-11.4,29.649-15.965l-4.561-2.281c0,4.561-21.105,12.771-29.649,15.965-9.123,3.408-13.684,6.842-13.684,15.965v13.684H16.11Z" transform="translate(-10.408 -247.721)"/><path class="d" d="M374.471,380.484c0-9.123-4.561-12.557-13.684-15.965-8.544-3.194-29.649-11.4-29.649-15.965l4.561-2.281c0,4.561,21.1,12.771,29.648,15.965,9.123,3.408,13.684,6.842,13.684,15.965v13.684h-4.561Z" transform="translate(-238.772 -247.431)"/><g transform="translate(44.473 89.836)"><rect class="c" width="6.842" height="38.201" transform="translate(22.808 16.534)"/><path class="c" d="M189.581,332.966l-14.824,6.842-11.4-15.965v-9.123l26.227,15.965Z" transform="translate(-163.354 -314.721)"/></g><path class="e" d="M177.624,338.376,166.165,322.8v-6.686l-2.811-1.39v9.123l11.4,15.965Z" transform="translate(-118.881 -224.885)"/><path class="c" d="M255.252,332.966l14.824,6.842,11.4-15.965,0-9.123-26.223,15.965Z" transform="translate(-184.547 -224.885)"/><path class="b" d="M297.042,338.363,308.53,322.8v-6.686l2.81-1.39v9.123l-11.4,15.965Z" transform="translate(-214.408 -224.885)"/><path class="e" d="M119.977,86.4c0-25.208,16.657-42.07,37.631-43.221-.76-.041-1.51-.111-2.281-.111-22.041,0-39.912,17.213-39.912,43.332s24.722,50.174,39.912,50.174a16.515,16.515,0,0,0,2.281-.183C142.352,134.22,119.977,111.253,119.977,86.4Z" transform="translate(-84.627 -30.776)"/><g transform="translate(29.606 12.294)"><path class="b" d="M284.877,86.4c0-25.208-16.657-42.07-37.631-43.221.76-.041,1.51-.111,2.281-.111,22.041,0,39.911,17.213,39.911,43.332s-24.722,50.174-39.911,50.174a16.511,16.511,0,0,1-2.281-.183C262.5,134.22,284.877,111.253,284.877,86.4Z" transform="translate(-208.432 -43.07)"/><path class="b" d="M149.942,216.724c-4.561-4.388-11.8,1.074-23.733,4.357s-12.236-12.223-12.236-12.223c-10.641,15.684,12.784,26.5,24.66,23.421C150.749,229.13,155.764,222.323,149.942,216.724Z" transform="translate(-111.271 -161.534)"/></g><path class="c" d="M140.913,230c-10.782,2.793-31.078-5.863-26.764-19.217-.154-1.144-.176-1.923-.176-1.923-10.641,15.684,12.784,26.5,24.66,23.421,6.056-1.575,10.336-4.062,12.379-6.855A27.737,27.737,0,0,1,140.913,230Z" transform="translate(-81.665 -149.24)"/><g transform="translate(26.228 46.504)"><path class="b" d="M257.663,216.724c4.561-4.388,11.8,1.074,23.733,4.357s12.241-12.223,12.241-12.223c10.637,15.684-12.784,26.5-24.664,23.421C256.857,229.13,251.846,222.323,257.663,216.724Z" transform="translate(-210.767 -195.744)"/><rect class="b" width="88.945" height="4.561"/></g><path class="d" d="M270.086,230c10.782,2.793,31.078-5.863,26.764-19.217.154-1.144.176-1.923.176-1.923,10.641,15.684-12.784,26.5-24.66,23.421-6.056-1.575-10.337-4.062-12.379-6.855A27.741,27.741,0,0,0,270.086,230Z" transform="translate(-187.931 -149.24)"/><path class="b" d="M155.76,19.607a39.767,39.767,0,0,0-39.767,39.767h-.071v1.14h79.6v-1.14A39.767,39.767,0,0,0,155.76,19.607Z" transform="translate(-84.988 -14.01)"/><path class="c" d="M120.556,66.592a39.672,39.672,0,0,1,20.283-34.628l.027-2.255a39.78,39.78,0,0,0-24.871,36.884h-.071v1.14h4.561v-1.14Z" transform="translate(-84.989 -21.228)"/><path class="d" d="M327.573,66.592A39.671,39.671,0,0,0,307.29,31.963l-.027-2.255a39.779,39.779,0,0,1,24.871,36.884h.071v1.14h-4.561v-1.14Z" transform="translate(-221.712 -21.228)"/><path class="b" d="M236.356,5.856a42.457,42.457,0,0,0-25.087,0h0V21.968h25.087V5.856Z" transform="translate(-153.119 -2.832)"/><g transform="translate(58.15 1.131)"><path class="c" d="M213.549,5.861a42.131,42.131,0,0,1,11.408-1.854c-.381-.01-.757-.043-1.14-.043a42.158,42.158,0,0,0-12.548,1.9h0V21.968h2.28V5.861Z" transform="translate(-211.269 -3.963)"/><path class="c" d="M263.413,5.861a42.133,42.133,0,0,0-11.408-1.854c.381-.01.757-.043,1.14-.043a42.158,42.158,0,0,1,12.548,1.9h0V21.968h-2.28V5.861Z" transform="translate(-240.377 -3.963)"/></g><g transform="translate(55.85 7.57)"><path class="d" d="M205.514,26.52c-.778.261-1.55.537-2.305.843V37.837h2.305Z" transform="translate(-203.209 -26.52)"/><path class="d" d="M299.187,26.52c.778.261,1.55.537,2.305.843V37.837h-2.305Z" transform="translate(-271.79 -26.52)"/></g><g transform="translate(0 0)"><path class="f" d="M177.921,317.551c-9.374,0-21.989-8.637-30.678-21.007a1.14,1.14,0,1,1,1.867-1.309c8.287,11.8,20.134,20.036,28.811,20.036s20.528-8.241,28.818-20.04a1.14,1.14,0,1,1,1.866,1.309C199.915,308.91,187.3,317.551,177.921,317.551Z" transform="translate(-107.221 -210.61)"/><path class="f" d="M147.814,402.079H8.693a1.14,1.14,0,0,1-1.14-1.14V387.255c0-9.789,5.069-13.537,14.426-17.034a240.826,240.826,0,0,0,24.931-11.2,1.14,1.14,0,1,1,1.109,1.991,243.288,243.288,0,0,1-25.243,11.345c-8.769,3.274-12.942,6.338-12.942,14.9V399.8h136.84V387.255c0-8.557-4.174-11.622-12.942-14.9a246.747,246.747,0,0,1-25.241-11.441,1.14,1.14,0,1,1,1.1-2,243.505,243.505,0,0,0,24.934,11.3c9.356,3.5,14.426,7.245,14.426,17.034v13.684A1.139,1.139,0,0,1,147.814,402.079Z" transform="translate(-7.553 -256.366)"/><path class="f" d="M252.6,416.874a1.149,1.149,0,0,1-1.152-1.14,1.13,1.13,0,0,1,1.127-1.14h.025a1.14,1.14,0,0,1,0,2.28Z" transform="translate(-181.826 -296.249)"/><path class="f" d="M252.6,448.833a1.149,1.149,0,0,1-1.152-1.14,1.13,1.13,0,0,1,1.127-1.14h.025a1.14,1.14,0,0,1,0,2.28Z" transform="translate(-181.826 -319.086)"/><path class="f" d="M252.6,480.792a1.149,1.149,0,0,1-1.152-1.14,1.13,1.13,0,0,1,1.127-1.14h.025a1.14,1.14,0,0,1,0,2.28Z" transform="translate(-181.826 -341.922)"/><path class="f" d="M344.264,333.548a1.14,1.14,0,0,1-1.141-1.14v-4.561a1.14,1.14,0,0,1,2.281,0v4.561A1.14,1.14,0,0,1,344.264,333.548Z" transform="translate(-247.335 -233.449)"/><path class="f" d="M304.314,360.93a1.142,1.142,0,0,1-.929-1.8l11.4-15.965a1.141,1.141,0,0,1,1.857,1.327l-11.4,15.965A1.141,1.141,0,0,1,304.314,360.93Z" transform="translate(-218.789 -244.866)"/><path class="f" d="M270.061,383.772a1.165,1.165,0,0,1-.51-.12l-13.684-6.842a1.14,1.14,0,0,1,1.02-2.04l13.684,6.842a1.14,1.14,0,0,1-.51,2.16Z" transform="translate(-184.536 -267.708)"/><path class="f" d="M160.5,333.548a1.14,1.14,0,0,1-1.14-1.14v-4.561a1.14,1.14,0,0,1,2.281,0v4.561A1.14,1.14,0,0,1,160.5,333.548Z" transform="translate(-116.026 -233.449)"/><path class="f" d="M171.9,360.93a1.139,1.139,0,0,1-.929-.476l-11.4-15.965a1.141,1.141,0,0,1,1.857-1.327l11.4,15.965a1.142,1.142,0,0,1-.929,1.8Z" transform="translate(-116.025 -244.866)"/><path class="f" d="M200.448,383.769a1.14,1.14,0,0,1-.51-2.16l13.684-6.842a1.14,1.14,0,1,1,1.02,2.04l-13.684,6.842A1.16,1.16,0,0,1,200.448,383.769Z" transform="translate(-144.572 -267.706)"/><path class="f" d="M264.366,430.543a1.14,1.14,0,0,1-1.14-1.14V399.754a1.14,1.14,0,0,1,2.28,0V429.4A1.14,1.14,0,0,1,264.366,430.543Z" transform="translate(-190.245 -284.831)"/><path class="f" d="M240.4,430.543a1.14,1.14,0,0,1-1.14-1.14V399.754a1.14,1.14,0,0,1,2.281,0V429.4A1.14,1.14,0,0,1,240.4,430.543Z" transform="translate(-173.118 -284.831)"/><path class="f" d="M128.5,432.311a1.137,1.137,0,0,1-.806-.334l-22.713-22.708a1.14,1.14,0,1,1,1.612-1.612l22.713,22.708a1.141,1.141,0,0,1-.806,1.947Z" transform="translate(-76.933 -291.053)"/><path class="f" d="M47.206,452.719a1.138,1.138,0,0,1-.806-.334L31.856,437.841a1.14,1.14,0,1,1,1.612-1.612l14.544,14.544a1.14,1.14,0,0,1-.806,1.947Z" transform="translate(-24.68 -311.47)"/><path class="f" d="M136.686,442.917a1.141,1.141,0,0,1-.806-1.947l18.464-18.459a1.14,1.14,0,1,1,1.612,1.612l-18.464,18.459A1.136,1.136,0,0,1,136.686,442.917Z" transform="translate(-99.01 -301.668)"/><path class="f" d="M34.988,414.785a1.14,1.14,0,0,1-.806-1.947l29.7-29.7a1.14,1.14,0,1,1,1.612,1.613l-29.7,29.7A1.137,1.137,0,0,1,34.988,414.785Z" transform="translate(-26.342 -273.535)"/><path class="f" d="M322.277,432.311a1.141,1.141,0,0,1-.806-1.947l22.713-22.708a1.14,1.14,0,1,1,1.612,1.612l-22.713,22.708A1.137,1.137,0,0,1,322.277,432.311Z" transform="translate(-231.625 -291.052)"/><path class="f" d="M424.021,452.719a1.141,1.141,0,0,1-.806-1.947l14.544-14.544a1.14,1.14,0,0,1,1.612,1.613l-14.544,14.544A1.137,1.137,0,0,1,424.021,452.719Z" transform="translate(-304.326 -311.469)"/><path class="f" d="M324.728,442.917a1.137,1.137,0,0,1-.806-.334l-18.464-18.459a1.14,1.14,0,1,1,1.612-1.612l18.464,18.459a1.14,1.14,0,0,1-.806,1.947Z" transform="translate(-220.183 -301.668)"/><path class="f" d="M398.3,414.785a1.138,1.138,0,0,1-.806-.334l-29.7-29.7a1.14,1.14,0,1,1,1.612-1.612l29.7,29.7a1.141,1.141,0,0,1-.806,1.947Z" transform="translate(-264.73 -273.536)"/><path class="f" d="M131.3,231.089h0c-8.082,0-18.728-4.312-22.55-11.526-1.641-3.095-2.722-8.071,1.437-14.2a1.141,1.141,0,0,1,2.084.617c.009.472.339,11.563,7.98,11.563a10.732,10.732,0,0,0,2.813-.415c3.635-1,6.844-2.21,9.673-3.278,4.082-1.54,7.305-2.756,10.118-2.756a6.919,6.919,0,0,1,5.036,1.956c2.969,2.856,3.027,5.615,2.555,7.426-1.127,4.309-6.365,7.975-14.368,10.055A19.244,19.244,0,0,1,131.3,231.089ZM110.411,209.7a9.987,9.987,0,0,0,.35,8.8c3.419,6.456,13.127,10.311,20.537,10.313h0a16.761,16.761,0,0,0,4.2-.49c6.969-1.811,11.849-5.038,12.733-8.422.466-1.776-.185-3.528-1.929-5.206-2.51-2.417-6.615-1.03-12.766,1.29-2.878,1.085-6.136,2.315-9.873,3.343a12.982,12.982,0,0,1-3.419.5C114.105,219.822,111.368,214.368,110.411,209.7Z" transform="translate(-78.817 -146.384)"/><path class="f" d="M270.6,231.089a19.231,19.231,0,0,1-4.775-.561c-8-2.08-13.238-5.746-14.368-10.053-.474-1.812-.416-4.573,2.552-7.429a6.921,6.921,0,0,1,5.036-1.956c2.815,0,6.04,1.217,10.123,2.757,2.828,1.068,6.036,2.277,9.668,3.277a10.733,10.733,0,0,0,2.815.415c7.644,0,7.974-11.09,7.983-11.563a1.141,1.141,0,0,1,2.084-.617c4.158,6.131,3.076,11.108,1.434,14.2C289.331,226.777,278.685,231.089,270.6,231.089Zm-11.555-17.718a4.683,4.683,0,0,0-3.454,1.318c-1.744,1.678-2.392,3.43-1.926,5.207.886,3.383,5.764,6.612,12.733,8.421,7.263,1.885,20.608-2.027,24.74-9.822a9.987,9.987,0,0,0,.352-8.8c-.958,4.67-3.695,10.123-9.838,10.123a12.95,12.95,0,0,1-3.421-.5c-3.733-1.027-6.991-2.257-9.867-3.342C264.5,214.523,261.446,213.372,259.047,213.372Z" transform="translate(-181.679 -146.384)"/><path class="f" d="M208.421,4.169a1.14,1.14,0,0,1-.339-2.229,43.793,43.793,0,0,1,25.764,0,1.14,1.14,0,1,1-.677,2.178,41.491,41.491,0,0,0-24.41,0A1.152,1.152,0,0,1,208.421,4.169Z" transform="translate(-150.269 0)"/><path class="f" d="M208.438,25a1.14,1.14,0,0,1-1.14-1.14V7.756a1.14,1.14,0,1,1,2.281,0V23.864A1.14,1.14,0,0,1,208.438,25Z" transform="translate(-150.281 -4.728)"/><path class="f" d="M296.325,24.993a1.14,1.14,0,0,1-1.14-1.14V7.74a1.14,1.14,0,1,1,2.28,0V23.852A1.14,1.14,0,0,1,296.325,24.993Z" transform="translate(-213.081 -4.716)"/><path class="f" d="M185.527,161.2H96.581a1.14,1.14,0,1,1,0-2.281h88.946a1.14,1.14,0,0,1,0,2.281Z" transform="translate(-70.354 -113.557)"/><path class="f" d="M185.527,177.181H96.581a1.14,1.14,0,1,1,0-2.281h88.946a1.14,1.14,0,0,1,0,2.281Z" transform="translate(-70.354 -124.975)"/><path class="f" d="M408.182,165.763a1.14,1.14,0,0,1-1.14-1.14v-4.561a1.14,1.14,0,1,1,2.28,0v4.561A1.14,1.14,0,0,1,408.182,165.763Z" transform="translate(-293.009 -113.557)"/><path class="f" d="M96.581,165.763a1.14,1.14,0,0,1-1.14-1.14v-4.561a1.14,1.14,0,0,1,2.281,0v4.561A1.14,1.14,0,0,1,96.581,165.763Z" transform="translate(-70.354 -113.557)"/><path class="f" d="M334.98,63.5a1.138,1.138,0,0,1-1.134-1.044,38.886,38.886,0,0,0-22.009-31.714,1.141,1.141,0,0,1,.98-2.06,41.17,41.17,0,0,1,23.3,33.583,1.139,1.139,0,0,1-1.04,1.232C335.045,63.5,335.014,63.5,334.98,63.5Z" transform="translate(-224.515 -20.419)"/><path class="f" d="M113.07,63.486a.916.916,0,0,1-.1,0,1.14,1.14,0,0,1-1.04-1.233,41.19,41.19,0,0,1,23.308-33.582,1.141,1.141,0,0,1,.98,2.06A38.9,38.9,0,0,0,114.2,62.443,1.139,1.139,0,0,1,113.07,63.486Z" transform="translate(-82.134 -20.406)"/></g></g></svg>