<svg xmlns="http://www.w3.org/2000/svg" viewBox="0 0 209.32 209.32"><defs><style>.a,.i{fill:none;}.a{stroke:#e6e6e6;stroke-width:5px;}.b{fill:#ff9494;}.c{fill:#f6bb42;}.d{fill:#ffd7d7;}.e{fill:#fff;}.f{fill:#ff5c5c;}.g{fill:#f11;}.h{stroke:none;}</style></defs><g transform="translate(0)"><g class="a" transform="translate(104.66) rotate(45)"><rect class="h" width="148.011" height="148.011"/><rect class="i" x="2.5" y="2.5" width="143.011" height="143.011"/></g><g transform="translate(31.008 31.177)"><rect class="b" width="86.063" height="9.562" transform="translate(37.053 58.376)"/><g transform="translate(115.944 72.72)"><path class="c" d="M448.218,272.081l-4.781,4.781V260.128l4.781-4.781Z" transform="translate(-426.703 -255.347)"/><path class="c" d="M392.288,328.009l-4.781,4.781V316.056l4.781-4.781Z" transform="translate(-387.507 -294.541)"/><path class="c" d="M448.218,383.938l-4.781,4.781V371.985l4.781-4.781Z" transform="translate(-426.703 -333.736)"/><path class="c" d="M392.288,439.866l-4.781,4.781V427.913l4.781-4.781Z" transform="translate(-387.507 -372.93)"/></g><g transform="translate(115.944 72.72)"><path class="b" d="M448.218,272.081l-4.781,4.781V260.128l4.781-4.781Z" transform="translate(-426.703 -255.347)"/><path class="b" d="M392.288,328.009l-4.781,4.781V316.056l4.781-4.781Z" transform="translate(-387.507 -294.541)"/><path class="b" d="M448.218,383.938l-4.781,4.781V371.985l4.781-4.781Z" transform="translate(-426.703 -333.736)"/><path class="b" d="M392.288,439.866l-4.781,4.781V427.913l4.781-4.781Z" transform="translate(-387.507 -372.93)"/></g><g transform="translate(1.195 77.501)"><rect class="d" width="114.748" height="16.734" transform="translate(16.733)"/><rect class="d" width="114.748" height="16.734" transform="translate(0 16.734)"/><rect class="d" width="114.748" height="16.734" transform="translate(16.733 33.466)"/><rect class="d" width="114.748" height="16.734" transform="translate(0 50.201)"/></g><g transform="translate(1.195 72.72)"><path class="b" d="M174.672,260.128H59.923l4.781-4.781H179.453Z" transform="translate(-43.189 -255.347)"/><path class="b" d="M20.729,316.056H3.995l4.781-4.781H20.729Z" transform="translate(-3.995 -294.541)"/><path class="b" d="M20.729,427.913H3.995l4.781-4.781H20.729Z" transform="translate(-3.995 -372.93)"/><path class="b" d="M392.288,367.2h16.734l-4.781,4.781H387.507Z" transform="translate(-272.759 -333.736)"/></g><g transform="translate(1.195 77.501)"><rect class="e" width="2.391" height="16.734" transform="translate(16.733)"/><rect class="e" width="2.391" height="16.734" transform="translate(54.983)"/><rect class="e" width="2.391" height="16.734" transform="translate(93.233)"/><rect class="e" width="2.391" height="16.734" transform="translate(16.733 33.466)"/><rect class="e" width="2.391" height="16.734" transform="translate(0 16.734)"/><rect class="e" width="2.391" height="16.734" transform="translate(38.248 16.734)"/></g><g transform="translate(37.053 77.501)"><rect class="b" width="2.391" height="16.734" transform="translate(0 16.734)"/><rect class="b" width="2.391" height="16.734" transform="translate(38.25 16.734)"/><rect class="b" width="2.39" height="16.734" transform="translate(76.501 16.734)"/><rect class="b" width="2.391" height="16.734" transform="translate(93.238 33.466)"/><rect class="b" width="2.39" height="16.734" transform="translate(54.985 33.466)"/><rect class="b" width="2.391" height="16.734" transform="translate(16.732 33.466)"/><rect class="b" width="2.391" height="16.734" transform="translate(0 50.201)"/><rect class="b" width="2.391" height="16.734" transform="translate(38.25 50.201)"/><rect class="b" width="2.39" height="16.734" transform="translate(76.501 50.201)"/><rect class="b" width="2.391" height="16.734" transform="translate(93.238)"/><rect class="b" width="2.39" height="16.734" transform="translate(54.985)"/><rect class="b" width="2.391" height="16.734" transform="translate(16.732)"/></g><g transform="translate(1.195 94.236)"><rect class="e" width="2.392" height="16.734" transform="translate(76.499)"/><rect class="e" width="2.391" height="16.734" transform="translate(0 33.466)"/><rect class="e" width="2.391" height="16.734" transform="translate(38.248 33.466)"/><rect class="e" width="2.392" height="16.734" transform="translate(76.499 33.466)"/><rect class="e" width="2.391" height="16.734" transform="translate(54.983 16.732)"/><rect class="e" width="2.391" height="16.734" transform="translate(93.233 16.732)"/></g><g transform="translate(44.225 1.191)"><path class="d" d="M152.591,217.788a2.391,2.391,0,1,1-2.391-2.39A2.39,2.39,0,0,1,152.591,217.788Z" transform="translate(-147.81 -155.823)"/><path class="d" d="M376.31,217.788a2.39,2.39,0,1,1-2.39-2.39A2.39,2.39,0,0,1,376.31,217.788Z" transform="translate(-304.591 -155.823)"/><rect class="d" width="14.344" height="9.562" transform="translate(28.687 57.185)"/><path class="d" d="M347.988,27.757c-5.6-5.6-31.757-11.472-31.757-11.472S322.1,42.441,327.7,48.042a14.343,14.343,0,1,0,20.285-20.285Z" transform="translate(-265.839 -16.285)"/></g><path class="e" d="M329.394,46.352c-4.613-4.615-9.4-23.147-10.949-29.543-1.37-.332-2.213-.523-2.213-.523S322.1,42.442,327.7,48.043a14.345,14.345,0,0,0,20.285,0c.285-.287.544-.586.8-.89A14.336,14.336,0,0,1,329.394,46.352Z" transform="translate(-221.614 -15.094)"/><rect class="d" width="4.784" height="17.938" transform="translate(133.492 36.683) rotate(135)"/><path class="b" d="M429.22,136.036l15.215,15.214,0,0a4.781,4.781,0,0,0,6.761-6.761l-15.215-15.214Z" transform="translate(-300.796 -94.275)"/><path class="d" d="M446.127,161.441l0,0L430.91,146.229l-1.69,1.69,15.215,15.214,0,0a4.779,4.779,0,0,0,6.761,0,4.676,4.676,0,0,0,.726-.962A4.777,4.777,0,0,1,446.127,161.441Z" transform="translate(-300.796 -106.158)"/><rect class="e" width="2.39" height="17.938" transform="translate(131.803 38.381) rotate(135)"/><rect class="d" width="2.391" height="9.562" transform="translate(37.053 58.376)"/><rect class="f" width="2.391" height="9.562" transform="translate(120.726 58.376)"/><g transform="translate(0 0)"><path class="g" d="M115.944,454.241H1.2a1.194,1.194,0,0,1-1.2-1.2V436.311a1.2,1.2,0,0,1,1.2-1.2H115.943a1.2,1.2,0,0,1,1.2,1.2v16.734A1.194,1.194,0,0,1,115.944,454.241ZM2.392,451.85H114.749V437.507H2.391Z" transform="translate(0 -308.608)"/><path class="g" d="M171.87,398.307H57.125a1.2,1.2,0,0,1-1.2-1.2V380.377a1.2,1.2,0,0,1,1.2-1.2l38.249,0,76.5,0a1.2,1.2,0,0,1,1.2,1.2l0,16.734A1.194,1.194,0,0,1,171.87,398.307ZM58.32,395.916H170.674l0-14.343H58.319Z" transform="translate(-39.194 -269.409)"/><path class="g" d="M115.944,342.379H1.2a1.194,1.194,0,0,1-1.2-1.2V324.45a1.2,1.2,0,0,1,1.2-1.2l38.249,0,76.5,0a1.2,1.2,0,0,1,1.2,1.2v16.734A1.194,1.194,0,0,1,115.944,342.379ZM2.392,339.989H114.749V325.645H2.391Z" transform="translate(0 -230.215)"/><path class="g" d="M133.623,286.457h-76.5a1.2,1.2,0,0,1-1.2-1.2V268.527a1.2,1.2,0,0,1,1.2-1.2H171.872a1.2,1.2,0,0,1,1.2,1.2v16.732a1.2,1.2,0,0,1-1.2,1.2Zm-75.3-2.391,112.357,0V269.722H58.319Z" transform="translate(-39.194 -191.026)"/><path class="g" d="M440.636,264.123a1.2,1.2,0,0,1-.846-2.04l2.391-2.39a1.195,1.195,0,1,1,1.69,1.69l-2.39,2.391A1.191,1.191,0,0,1,440.636,264.123Z" transform="translate(-307.958 -185.427)"/><path class="g" d="M57.123,258.523a1.2,1.2,0,0,1-.845-2.04l4.781-4.781a1.2,1.2,0,0,1,1.69,1.691l-4.781,4.781A1.19,1.19,0,0,1,57.123,258.523Z" transform="translate(-39.194 -179.827)"/><path class="g" d="M187.852,253.743H73.1a1.2,1.2,0,1,1,0-2.391H187.852a1.2,1.2,0,0,1,0,2.391Z" transform="translate(-50.393 -179.827)"/><path class="g" d="M1.2,314.453a1.2,1.2,0,0,1-.845-2.04l4.782-4.781a1.2,1.2,0,1,1,1.69,1.69L2.04,314.1A1.191,1.191,0,0,1,1.2,314.453Z" transform="translate(0 -219.022)"/><path class="g" d="M26.739,309.672H17.178a1.2,1.2,0,1,1,0-2.391h9.561a1.2,1.2,0,1,1,0,2.391Z" transform="translate(-11.201 -219.022)"/><path class="g" d="M1.2,426.309a1.2,1.2,0,0,1-.845-2.04l4.782-4.781a1.2,1.2,0,1,1,1.69,1.69L2.04,425.959A1.192,1.192,0,0,1,1.2,426.309Z" transform="translate(0 -297.411)"/><path class="g" d="M26.741,421.528H17.178a1.2,1.2,0,1,1,0-2.39h9.562a1.2,1.2,0,1,1,0,2.39Z" transform="translate(-11.201 -297.411)"/><path class="g" d="M312.8,264.123a1.2,1.2,0,0,1-.845-2.04l2.391-2.39a1.195,1.195,0,1,1,1.69,1.69l-2.39,2.391A1.191,1.191,0,0,1,312.8,264.123Z" transform="translate(-218.371 -185.427)"/><path class="g" d="M184.96,264.123a1.2,1.2,0,0,1-.845-2.04l2.39-2.39a1.2,1.2,0,1,1,1.69,1.69l-2.391,2.391A1.189,1.189,0,0,1,184.96,264.123Z" transform="translate(-128.781 -185.427)"/><path class="g" d="M440.636,314.45a1.2,1.2,0,0,1-.846-2.04l4.781-4.779a1.195,1.195,0,0,1,1.69,1.69l-4.781,4.779A1.19,1.19,0,0,1,440.636,314.45Z" transform="translate(-307.958 -219.022)"/><path class="g" d="M384.707,370.381a1.2,1.2,0,0,1-.845-2.04l4.781-4.781a1.2,1.2,0,0,1,1.69,1.69l-4.781,4.781A1.19,1.19,0,0,1,384.707,370.381Z" transform="translate(-268.764 -258.217)"/><path class="g" d="M456.616,270.477h0a1.2,1.2,0,0,1-1.2-1.2V252.547a1.2,1.2,0,0,1,1.2-1.2h0a1.194,1.194,0,0,1,1.2,1.2v16.734A1.194,1.194,0,0,1,456.616,270.477Z" transform="translate(-319.157 -179.827)"/><path class="g" d="M440.636,375.98a1.2,1.2,0,0,1-.846-2.04l2.391-2.39a1.2,1.2,0,1,1,1.69,1.69l-2.39,2.39A1.192,1.192,0,0,1,440.636,375.98Z" transform="translate(-307.958 -263.816)"/><path class="g" d="M423.02,365.6H408.677a1.2,1.2,0,1,1,0-2.39H423.02a1.2,1.2,0,0,1,0,2.39Z" transform="translate(-285.561 -258.216)"/><path class="g" d="M440.628,426.309a1.2,1.2,0,0,1-.846-2.04l4.784-4.781a1.195,1.195,0,0,1,1.69,1.69l-4.783,4.781A1.192,1.192,0,0,1,440.628,426.309Z" transform="translate(-307.952 -297.411)"/><path class="g" d="M456.616,382.334h0a1.2,1.2,0,0,1-1.2-1.2V364.4a1.2,1.2,0,0,1,1.2-1.2h0a1.194,1.194,0,0,1,1.2,1.2v16.734A1.194,1.194,0,0,1,456.616,382.334Z" transform="translate(-319.157 -258.216)"/><path class="g" d="M400.687,343.2h0a1.2,1.2,0,0,1-1.2-1.2v-9.562a1.2,1.2,0,0,1,1.2-1.2h0a1.194,1.194,0,0,1,1.2,1.2v9.562A1.2,1.2,0,0,1,400.687,343.2Z" transform="translate(-279.962 -235.82)"/><path class="g" d="M384.707,482.237a1.2,1.2,0,0,1-.845-2.04l4.781-4.781a1.2,1.2,0,0,1,1.69,1.69l-4.781,4.781A1.189,1.189,0,0,1,384.707,482.237Z" transform="translate(-268.764 -336.605)"/><path class="g" d="M400.687,455.06a1.2,1.2,0,0,1-1.2-1.2V444.3a1.2,1.2,0,0,1,2.391,0v9.562A1.2,1.2,0,0,1,400.687,455.06Z" transform="translate(-279.962 -314.208)"/><path class="g" d="M129.033,345.594a1.2,1.2,0,0,1-1.2-1.2V332.446a1.2,1.2,0,0,1,2.391,0V344.4A1.2,1.2,0,0,1,129.033,345.594Z" transform="translate(-89.587 -235.82)"/><path class="g" d="M184.952,289.665h0a1.2,1.2,0,0,1-1.2-1.2V276.517a1.2,1.2,0,0,1,1.2-1.2h0a1.2,1.2,0,0,1,1.2,1.2V288.47A1.2,1.2,0,0,1,184.952,289.665Z" transform="translate(-128.776 -196.626)"/><path class="g" d="M256.867,345.594h0a1.2,1.2,0,0,1-1.2-1.2V332.446a1.2,1.2,0,0,1,1.2-1.2h0a1.2,1.2,0,0,1,1.2,1.2V344.4A1.2,1.2,0,0,1,256.867,345.594Z" transform="translate(-179.174 -235.82)"/><path class="g" d="M129.031,457.45a1.2,1.2,0,0,1-1.2-1.2V444.3a1.2,1.2,0,1,1,2.391,0v11.953A1.194,1.194,0,0,1,129.031,457.45Z" transform="translate(-89.587 -314.209)"/><path class="g" d="M256.867,457.45h0a1.2,1.2,0,0,1-1.2-1.2V444.3a1.2,1.2,0,0,1,1.2-1.2h0a1.2,1.2,0,0,1,1.2,1.2v11.953A1.2,1.2,0,0,1,256.867,457.45Z" transform="translate(-179.174 -314.209)"/><path class="g" d="M312.8,289.665h0a1.194,1.194,0,0,1-1.2-1.2V276.517a1.2,1.2,0,0,1,1.2-1.2h0a1.2,1.2,0,0,1,1.2,1.2V288.47A1.2,1.2,0,0,1,312.8,289.665Z" transform="translate(-218.371 -196.626)"/><path class="g" d="M184.952,401.521h0a1.194,1.194,0,0,1-1.2-1.2V388.373a1.2,1.2,0,0,1,1.2-1.2h0a1.2,1.2,0,0,1,1.2,1.2v11.953A1.2,1.2,0,0,1,184.952,401.521Z" transform="translate(-128.776 -275.014)"/><path class="g" d="M312.8,401.521h0a1.194,1.194,0,0,1-1.2-1.2V388.373a1.2,1.2,0,0,1,1.2-1.2h0a1.2,1.2,0,0,1,1.2,1.2v11.953A1.2,1.2,0,0,1,312.8,401.521Z" transform="translate(-218.371 -275.014)"/><path class="g" d="M265.075,221.783a1.2,1.2,0,0,1-1.207-1.2,1.185,1.185,0,0,1,1.184-1.2h.023a1.2,1.2,0,0,1,0,2.391Z" transform="translate(-184.918 -157.43)"/><path class="g" d="M207.1,215.366H121.041a1.2,1.2,0,0,1-1.2-1.2v-9.562a1.2,1.2,0,0,1,1.2-1.2H207.1a1.2,1.2,0,0,1,1.2,1.2v9.562A1.194,1.194,0,0,1,207.1,215.366Zm-84.867-2.391h83.671V205.8h-83.67Z" transform="translate(-83.988 -146.232)"/><path class="g" d="M240.89,218.575a1.2,1.2,0,0,1-1.2-1.2V212.6a1.2,1.2,0,0,1,2.391,0v4.781A1.2,1.2,0,0,1,240.89,218.575Z" transform="translate(-167.976 -151.831)"/><path class="g" d="M288.831,218.575h0a1.2,1.2,0,0,1-1.2-1.2V212.6a1.2,1.2,0,0,1,1.2-1.2h0a1.2,1.2,0,0,1,1.2,1.2v4.781A1.2,1.2,0,0,1,288.831,218.575Z" transform="translate(-201.574 -151.831)"/><path class="g" d="M371.119,218.662a3.587,3.587,0,0,1-2.536-6.124,3.685,3.685,0,0,1,5.073,0,3.587,3.587,0,0,1-2.537,6.121Zm0-4.781a1.2,1.2,0,0,0-.846,2.04,1.238,1.238,0,0,0,2.041-.845,1.2,1.2,0,0,0-1.2-1.2Z" transform="translate(-257.565 -151.919)"/><path class="g" d="M147.4,218.574a3.586,3.586,0,1,1,3.586-3.586A3.593,3.593,0,0,1,147.4,218.574Zm0-4.781a1.2,1.2,0,1,0,1.2,1.2A1.195,1.195,0,0,0,147.4,213.793Z" transform="translate(-100.786 -151.831)"/><path class="g" d="M335.668,50.845A16.8,16.8,0,0,1,323.862,45.9c-6.1-6.1-11.376-31.1-11.6-32.158a1.2,1.2,0,0,1,.324-1.09,1.224,1.224,0,0,1,1.091-.325c1.062.222,26.058,5.5,32.153,11.6a16.576,16.576,0,0,1,4.519,15.464,1.195,1.195,0,1,1-2.323-.56,14.168,14.168,0,0,0-3.887-13.213c-4.709-4.711-23.236-9.207-29.137-10.545,1.338,5.9,5.836,24.431,10.547,29.142a14.151,14.151,0,0,0,13.211,3.88,1.207,1.207,0,0,1,1.443.882,1.194,1.194,0,0,1-.88,1.443A15.675,15.675,0,0,1,335.668,50.845Z" transform="translate(-218.816 -12.303)"/><path class="g" d="M415.661,105.614a1.19,1.19,0,0,1-.845-.35L402.98,93.433a1.2,1.2,0,1,1,1.69-1.69l11.836,11.831a1.2,1.2,0,0,1-.845,2.04Z" transform="translate(-282.161 -67.728)"/><path class="g" d="M404.357,116.913a1.192,1.192,0,0,1-.845-.35l-11.831-11.831a1.2,1.2,0,1,1,1.69-1.69L405.2,114.872a1.2,1.2,0,0,1-.845,2.04Z" transform="translate(-274.243 -75.646)"/><path class="g" d="M426.421,134.439a1.2,1.2,0,0,1-.845-2.04l6.765-6.761a1.2,1.2,0,0,1,1.69,1.69l-6.765,6.761A1.192,1.192,0,0,1,426.421,134.439Z" transform="translate(-297.996 -91.482)"/><path class="g" d="M464.244,142.89a1.19,1.19,0,0,1-.845-.35l-15.212-15.212a1.2,1.2,0,0,1,1.69-1.69l15.212,15.212a1.2,1.2,0,0,1-.845,2.04Z" transform="translate(-313.842 -91.482)"/><path class="g" d="M441.637,165.485a1.193,1.193,0,0,1-.846-.35l-15.216-15.212a1.2,1.2,0,1,1,1.69-1.69l15.217,15.212a1.2,1.2,0,0,1-.845,2.04Z" transform="translate(-297.996 -107.316)"/><path class="g" d="M480.656,186.683a5.937,5.937,0,0,1-4.226-1.753,1.2,1.2,0,0,1,1.693-1.69,3.66,3.66,0,0,0,5.068,0,3.59,3.59,0,0,0,0-5.071,1.2,1.2,0,1,1,1.692-1.69,5.98,5.98,0,0,1-4.228,10.2Z" transform="translate(-333.635 -127.111)"/><path class="g" d="M390.885,95.523a1.191,1.191,0,0,1-.845-.35,3.586,3.586,0,0,1,2.535-6.121h0a3.569,3.569,0,0,1,2.538,1.051,1.2,1.2,0,0,1-1.692,1.69,1.186,1.186,0,0,0-.846-.35h0a1.2,1.2,0,0,0-.845,2.04,1.2,1.2,0,0,1-.845,2.04Z" transform="translate(-272.602 -66.088)"/></g></g></g></svg>