<svg xmlns="http://www.w3.org/2000/svg" viewBox="0 0 209.32 209.32"><defs><style>.a,.h{fill:none;}.a{stroke:#e6e6e6;stroke-width:5px;}.b{fill:#ff9494;}.c{fill:#ffd7d7;}.d{fill:#fff;}.e{fill:#ff5c5c;}.f{fill:#f11;}.g{stroke:none;}</style></defs><g transform="translate(0)"><g class="a" transform="translate(104.66) rotate(45)"><rect class="g" width="148.011" height="148.011"/><rect class="h" x="2.5" y="2.5" width="143.011" height="143.011"/></g><g transform="translate(53.854 31.457)"><path class="b" d="M19.978,12.69l8.717-8.726h80.632L122.4,17.048v115.5l-8.717,9.092H19.978Z" transform="translate(-18.888 -2.883)"/><path class="c" d="M145.652,132.572H51.944V4h80.632l13.076,13.075Z" transform="translate(-42.138 -2.906)"/><path class="d" d="M354.9,19.251H339.646V4h2.179L354.9,17.071Z" transform="translate(-251.386 -2.906)"/><path class="e" d="M123.867,79.915a11.986,11.986,0,1,1-11.986-11.986A11.987,11.987,0,0,1,123.867,79.915Z" transform="translate(-77.013 -49.406)"/><g transform="translate(24.502 30.51)"><path class="c" d="M132.587,111.884l5.993,6.031-7.593,5.955-8.615-1.771Z" transform="translate(-117.862 -111.884)"/><path class="c" d="M110.752,115.881l-4.918,4.918,4.918,3.8,4.359-4.358Z" transform="translate(-105.834 -114.791)"/></g><path class="d" d="M128.229,86.092a2.179,2.179,0,1,1-2.179-2.179A2.179,2.179,0,0,1,128.229,86.092Z" transform="translate(-94.45 -61.031)"/><path class="c" d="M458.069,403.583v2.179l2.179,6.538-4.359,6.538-4.358-6.538,2.179-6.538v-2.179Z" transform="translate(-332.762 -293.53)"/><path class="d" d="M455.889,429.98,452.5,424.9l-.968,2.9,4.358,6.538,4.359-6.538-.969-2.9Z" transform="translate(-332.762 -309.032)"/><path class="e" d="M460.248,355.632v13.076h-8.717V355.632Z" transform="translate(-332.762 -258.655)"/><rect class="b" width="8.717" height="4.359" transform="translate(118.77 92.617)"/><path class="e" d="M456.615,116.605l-2.179,54.481h-8.717l-2.179-54.481c0-4.816,1.721-8.717,6.538-8.717h.217C454.937,108.018,456.615,111.855,456.615,116.605Z" transform="translate(-326.949 -78.468)"/><path class="b" d="M447.9,171.086l-2.179-54.481c0-4.418,1.481-8.027,5.44-8.6a6.81,6.81,0,0,0-.864-.117h-.217c-4.816,0-6.538,3.9-6.538,8.717l2.179,54.481v17.434H447.9V171.086Z" transform="translate(-326.948 -78.468)"/><path class="e" d="M466.81,171.086l2.179-54.481c0-4.418-1.482-8.027-5.44-8.6a6.813,6.813,0,0,1,.864-.117h.217c4.816,0,6.538,3.9,6.538,8.717l-2.179,54.481v17.434h-2.179V171.086Z" transform="translate(-341.503 -78.468)"/><rect class="b" width="4.358" height="2.179" transform="translate(120.949 110.053)"/><rect class="d" width="2.179" height="128.576" transform="translate(9.807 1.09)"/><g transform="translate(1.09 1.081)"><rect class="b" width="2.179" height="113.321" transform="translate(100.245 15.263)"/><path class="b" d="M28.695,132.549l-8.717,8.717V12.69l8.717-8.726Z" transform="translate(-19.978 -3.964)"/></g><rect class="c" width="2.179" height="4.359" transform="translate(118.77 92.617)"/><rect class="e" width="2.179" height="4.359" transform="translate(125.307 92.617)"/><g transform="translate(0)"><path class="f" d="M263.358,417.749H232.849a1.09,1.09,0,1,1,0-2.179h30.51a1.09,1.09,0,0,1,0,2.179Z" transform="translate(-172.919 -302.249)"/><path class="f" d="M271.324,408.3a1.079,1.079,0,0,1-.317-.047,1.093,1.093,0,0,1-.773-1.043v-3.98c-1.558,1.339-3.809,2.89-5.861,2.89-1.181,0-2.767-.5-3.621-2.9a1.091,1.091,0,0,1,2.055-.732c.515,1.456,1.251,1.456,1.566,1.456,2.09,0,5.431-3.141,6.1-3.943a1.113,1.113,0,0,1,1.217-.341,1.086,1.086,0,0,1,.728,1.015v2.947l2.362-3.552a1.087,1.087,0,0,1,.907-.485h4.358a1.09,1.09,0,1,1,0,2.179h-3.776l-4.035,6.055A1.091,1.091,0,0,1,271.324,408.3Z" transform="translate(-193.96 -290.625)"/><path class="f" d="M260.684,391.966a1.1,1.1,0,0,1-.164-.013,1.086,1.086,0,0,1-.863-.713,7.391,7.391,0,0,1,.627-6.542,3.175,3.175,0,0,1,3.82-1.368,1.6,1.6,0,0,1,.958,1.075c.247.887.026,2.428-3.507,7.127A1.1,1.1,0,0,1,260.684,391.966Zm2.186-6.659a1.507,1.507,0,0,0-.8.647,4.285,4.285,0,0,0-.685,2.066A12.462,12.462,0,0,0,262.87,385.307Z" transform="translate(-192.865 -278.645)"/><path class="f" d="M248.832,414.116a1.09,1.09,0,0,1-.819-1.809c.007-.008.775-.883,1.776-2.139.525-.636,1.125-1.383,1.7-2.153a1.089,1.089,0,1,1,1.742,1.307c-.6.8-1.221,1.577-1.753,2.22-1.031,1.294-1.829,2.2-1.829,2.2A1.091,1.091,0,0,1,248.832,414.116Z" transform="translate(-184.544 -296.436)"/><path class="f" d="M452.981,417.021a1.086,1.086,0,0,1-.907-.485L447.716,410a1.086,1.086,0,0,1-.128-.949l2.124-6.369v-2a1.09,1.09,0,1,1,2.179,0v2.179a1.111,1.111,0,0,1-.055.345l-2.011,6.031,4.063,6.1a1.089,1.089,0,0,1-.906,1.694Z" transform="translate(-329.854 -290.624)"/><path class="f" d="M464.606,417.02a1.089,1.089,0,0,1-.907-1.694l4.063-6.1L465.75,403.2a1.119,1.119,0,0,1-.055-.345v-2.179a1.09,1.09,0,1,1,2.179,0v2l2.124,6.37a1.086,1.086,0,0,1-.128.949l-4.358,6.538A1.085,1.085,0,0,1,464.606,417.02Z" transform="translate(-341.478 -290.623)"/><path class="f" d="M457.342,337.832h-8.717a1.09,1.09,0,1,1,0-2.179h8.717a1.09,1.09,0,0,1,0,2.179Z" transform="translate(-329.855 -244.124)"/><path class="f" d="M442.81,192.515a1.092,1.092,0,0,1-1.09-1.047l-2.179-54.481a1.09,1.09,0,1,1,2.179-.085l2.179,54.481a1.092,1.092,0,0,1-1.047,1.132Z" transform="translate(-324.041 -98.807)"/><path class="f" d="M480.589,192.516h-.043a1.092,1.092,0,0,1-1.047-1.132l2.179-54.481a1.079,1.079,0,0,1,1.132-1.047,1.092,1.092,0,0,1,1.047,1.132l-2.179,54.481A1.092,1.092,0,0,1,480.589,192.516Z" transform="translate(-353.103 -98.808)"/><path class="f" d="M471.723,114.789a1.089,1.089,0,0,1-1.09-1.09c0-4.963-1.77-7.529-5.261-7.627a1.094,1.094,0,0,1-1.06-1.119,1.106,1.106,0,0,1,1.122-1.06c4.688.132,7.378,3.705,7.378,9.806A1.089,1.089,0,0,1,471.723,114.789Z" transform="translate(-342.058 -75.563)"/><path class="f" d="M440.633,114.789a1.089,1.089,0,0,1-1.089-1.09c0-6.231,2.779-9.806,7.627-9.806a1.09,1.09,0,1,1,0,2.179c-3.614,0-5.448,2.567-5.448,7.627A1.089,1.089,0,0,1,440.633,114.789Z" transform="translate(-324.043 -75.563)"/><path class="f" d="M460.975,106.071h-4.358a1.09,1.09,0,0,1,0-2.179h4.358a1.09,1.09,0,0,1,0,2.179Z" transform="translate(-335.668 -75.562)"/><path class="f" d="M464.608,154.744a1.089,1.089,0,0,1-1.09-1.09V120.966a1.09,1.09,0,0,1,2.179,0v32.689A1.089,1.089,0,0,1,464.608,154.744Z" transform="translate(-341.48 -87.187)"/><path class="f" d="M457.342,353.816h-8.717a1.09,1.09,0,1,1,0-2.179h8.717a1.09,1.09,0,0,1,0,2.179Z" transform="translate(-329.855 -255.749)"/><path class="f" d="M480.592,342.191a1.089,1.089,0,0,1-1.09-1.089v-4.359a1.09,1.09,0,0,1,2.179,0V341.1A1.089,1.089,0,0,1,480.592,342.191Z" transform="translate(-353.105 -244.125)"/><path class="f" d="M448.625,342.191a1.089,1.089,0,0,1-1.09-1.089v-4.359a1.09,1.09,0,0,1,2.179,0V341.1A1.089,1.089,0,0,1,448.625,342.191Z" transform="translate(-329.855 -244.125)"/><path class="f" d="M457.342,401.766h-8.717a1.09,1.09,0,1,1,0-2.179h8.717a1.09,1.09,0,0,1,0,2.179Z" transform="translate(-329.855 -290.624)"/><path class="f" d="M480.592,366.891a1.089,1.089,0,0,1-1.09-1.089V352.727a1.09,1.09,0,1,1,2.179,0V365.8A1.089,1.089,0,0,1,480.592,366.891Z" transform="translate(-353.105 -255.749)"/><path class="f" d="M448.625,366.891a1.089,1.089,0,0,1-1.09-1.089V352.727a1.09,1.09,0,1,1,2.179,0V365.8A1.089,1.089,0,0,1,448.625,366.891Z" transform="translate(-329.855 -255.749)"/><path class="f" d="M392.683,165.63a1.089,1.089,0,0,1-1.09-1.09V49.04a1.09,1.09,0,0,1,2.179,0v115.5A1.089,1.089,0,0,1,392.683,165.63Z" transform="translate(-289.168 -34.875)"/><path class="f" d="M142.746,473.692H49.038a1.09,1.09,0,1,1,0-2.179h93.708a1.09,1.09,0,1,1,0,2.179Z" transform="translate(-39.231 -342.937)"/><path class="f" d="M49.038,130.755a1.089,1.089,0,0,1-1.09-1.09V1.09a1.09,1.09,0,1,1,2.179,0V129.666A1.089,1.089,0,0,1,49.038,130.755Z" transform="translate(-39.231)"/><path class="f" d="M129.67,2.179H49.038a1.09,1.09,0,0,1,0-2.179H129.67a1.09,1.09,0,0,1,0,2.179Z" transform="translate(-39.231)"/><path class="f" d="M357.808,15.255a1.086,1.086,0,0,1-.77-.319L343.962,1.86A1.089,1.089,0,0,1,345.5.32L358.579,13.4a1.089,1.089,0,0,1-.77,1.86Z" transform="translate(-254.294 0)"/><path class="f" d="M336.74,29.059a1.089,1.089,0,0,1-1.089-1.09v-10.9a1.09,1.09,0,1,1,2.179,0v10.9A1.089,1.089,0,0,1,336.74,29.059Z" transform="translate(-248.481 -11.625)"/><path class="f" d="M347.637,58.121h-10.9a1.09,1.09,0,0,1,0-2.179h10.9a1.09,1.09,0,0,1,0,2.179Z" transform="translate(-248.481 -40.687)"/><path class="f" d="M164.545,209.964H96.989a1.09,1.09,0,1,1,0-2.179h67.557a1.09,1.09,0,0,1,0,2.179Z" transform="translate(-74.107 -151.124)"/><path class="f" d="M164.545,241.931H96.989a1.09,1.09,0,0,1,0-2.179h67.557a1.09,1.09,0,0,1,0,2.179Z" transform="translate(-74.107 -174.374)"/><path class="f" d="M164.545,273.9H96.989a1.09,1.09,0,0,1,0-2.179h67.557a1.09,1.09,0,0,1,0,2.179Z" transform="translate(-74.107 -197.624)"/><path class="f" d="M164.545,305.865H96.989a1.09,1.09,0,1,1,0-2.179h67.557a1.09,1.09,0,0,1,0,2.179Z" transform="translate(-74.107 -220.874)"/><path class="f" d="M131.857,337.832H96.989a1.09,1.09,0,1,1,0-2.179h34.868a1.09,1.09,0,1,1,0,2.179Z" transform="translate(-74.107 -244.124)"/><path class="f" d="M108.975,90.086a12.625,12.625,0,0,1-6.51-1.768,12.472,12.472,0,0,1-4.793-4.782A12.819,12.819,0,0,1,95.9,77.01a13.075,13.075,0,1,1,26.151,0,12.843,12.843,0,0,1-1.787,6.548A12.986,12.986,0,0,1,108.975,90.086Zm0-23.972a10.909,10.909,0,0,0-10.9,10.9,10.67,10.67,0,0,0,1.482,5.437,10.351,10.351,0,0,0,4,3.984,10.483,10.483,0,0,0,5.417,1.475,10.811,10.811,0,0,0,9.4-5.442,10.683,10.683,0,0,0,1.493-5.455A10.909,10.909,0,0,0,108.975,66.114Z" transform="translate(-74.107 -46.501)"/><path class="f" d="M119.446,120.29a1.09,1.09,0,0,1-.77-1.86L128.9,108.209a1.089,1.089,0,0,1,1.541,1.541l-10.221,10.221A1.085,1.085,0,0,1,119.446,120.29Z" transform="translate(-90.44 -78.469)"/><path class="f" d="M162.925,116.078a1.06,1.06,0,0,1-.755-.315l-6.014-6.014a1.089,1.089,0,1,1,1.541-1.541l5.993,5.993a1.1,1.1,0,0,1-.765,1.877Z" transform="translate(-117.7 -78.469)"/><path class="f" d="M102.923,118.973a1.085,1.085,0,0,1-.776-1.845l4.925-4.924a1.089,1.089,0,0,1,1.541,1.541l-4.9,4.9A1.113,1.113,0,0,1,102.923,118.973Z" transform="translate(-78.423 -81.375)"/><path class="f" d="M125.323,118.423a1.086,1.086,0,0,1-.77-.319l-4.358-4.358a1.089,1.089,0,1,1,1.541-1.541l4.358,4.358a1.089,1.089,0,0,1-.77,1.86Z" transform="translate(-91.545 -81.376)"/><path class="f" d="M123.143,86.456a3.269,3.269,0,1,1,3.269-3.269A3.273,3.273,0,0,1,123.143,86.456Zm0-4.359a1.09,1.09,0,1,0,1.09,1.09A1.091,1.091,0,0,0,123.143,82.1Z" transform="translate(-91.544 -58.125)"/><path class="f" d="M33.055,146.738a1.089,1.089,0,0,1-1.09-1.089V17.073a1.09,1.09,0,1,1,2.179,0V145.649A1.089,1.089,0,0,1,33.055,146.738Z" transform="translate(-27.607 -11.625)"/><path class="f" d="M126.763,489.675H33.055a1.09,1.09,0,1,1,0-2.179h93.708a1.09,1.09,0,1,1,0,2.179Z" transform="translate(-27.607 -354.561)"/><path class="f" d="M110.78,505.658H17.072a1.09,1.09,0,1,1,0-2.179H110.78a1.09,1.09,0,1,1,0,2.179Z" transform="translate(-15.982 -366.186)"/><path class="f" d="M17.072,162.722a1.089,1.089,0,0,1-1.09-1.089V33.057a1.09,1.09,0,0,1,2.179,0V161.633A1.089,1.089,0,0,1,17.072,162.722Z" transform="translate(-15.982 -23.25)"/></g></g></g></svg>