<svg xmlns="http://www.w3.org/2000/svg" viewBox="0 0 145.759 60.612"><defs><style>.a{fill:#020202;}.b{fill:#ec2326;}</style></defs><g transform="translate(0 0.077)"><g transform="translate(0.572 -0.077)"><path class="a" d="M550.929,13.7c-.476.071-.953.167-1.429.238a3.821,3.821,0,0,1,.738,0A1.589,1.589,0,0,0,550.929,13.7Z" transform="translate(-419.219 -10.419)"/><path class="a" d="M542.214,15.524,542,15.6l.476-.1A.893.893,0,0,0,542.214,15.524Z" transform="translate(-413.505 -11.791)"/><path class="a" d="M533.6,16.591c.452-.048.857-.119,1.262-.191C534.5,16.448,534.076,16.5,533.6,16.591Z" transform="translate(-407.105 -12.476)"/><path class="a" d="M539.638,16.043c-.167-.024-.238-.071,0-.143h0c-.238.048-.5.1-.738.143A3.815,3.815,0,0,1,539.638,16.043Z" transform="translate(-411.143 -12.095)"/><path class="a" d="M543.3,16.7c.048,0,.119.024.167.024A.353.353,0,0,0,543.3,16.7Z" transform="translate(-414.496 -12.705)"/><path class="a" d="M542,16.5c.1.024.214.024.309.048A1.206,1.206,0,0,0,542,16.5Z" transform="translate(-413.505 -12.552)"/><path class="a" d="M506.672,18.734c-1.167.262-4.1,1.143-2.334.881,2.643-.4,4.358-.738,6.739-1.143.953-.214,1.881-.4,2.834-.619.929-.214,1.881-.476,2.858-.714a12.928,12.928,0,0,1,1.6-.238c-.691.071-1.381.143-2.167.214a7.317,7.317,0,0,0-1.667.452,16.124,16.124,0,0,1-2.1.6c-.238.071-.238-.286-.714-.143-1.143.262-2.119.548-3.215.714C508.006,18.876,507.172,18.567,506.672,18.734Z" transform="translate(-384.392 -12.857)"/><path class="a" d="M582.843,7.291a19.97,19.97,0,0,0,3.977-.5c-.1-.071-.1-.191-.476-.191-.238.1-.714.262-.714.262a11.461,11.461,0,0,0-3.429.548,4.392,4.392,0,0,1,.548.1C583.391,7.386,583.438,7.267,582.843,7.291Z" transform="translate(-444.132 -5.01)"/><path class="a" d="M602.286,6.8h-.024c-.262.048-.5.119-.762.167l.024.024C601.786,6.919,602.048,6.848,602.286,6.8Z" transform="translate(-458.836 -5.162)"/><path class="a" d="M54.8,21.5c.143.048.333.1.524.143C55.133,21.6,54.967,21.548,54.8,21.5Z" transform="translate(-42.322 -16.362)"/><path class="a" d="M51.8,239.838c.476-.071.953-.167,1.429-.238a3.822,3.822,0,0,1-.738,0A1.2,1.2,0,0,0,51.8,239.838Z" transform="translate(-40.036 -182.526)"/><path class="a" d="M63.562,238.471l.214-.071-.476.1C63.4,238.5,63.467,238.471,63.562,238.471Z" transform="translate(-48.798 -181.611)"/><path class="a" d="M69.662,237c-.452.048-.857.119-1.262.191A7.4,7.4,0,0,0,69.662,237Z" transform="translate(-52.683 -180.545)"/><path class="a" d="M65.3,237.8c.167.024.238.071,0,.143h0c.238-.048.5-.1.738-.143C65.752,237.824,65.514,237.8,65.3,237.8Z" transform="translate(-50.322 -181.154)"/><path class="a" d="M63.467,237.524c-.048,0-.119-.024-.167-.024A.536.536,0,0,1,63.467,237.524Z" transform="translate(-48.798 -180.926)"/><path class="a" d="M64.31,237.648c-.1-.024-.214-.024-.31-.048A1.639,1.639,0,0,1,64.31,237.648Z" transform="translate(-49.331 -181.002)"/><path class="a" d="M53.892,226.727c1.167-.262,4.1-1.143,2.334-.881-2.643.4-4.358.738-6.739,1.143-.953.214-1.881.4-2.834.619-.929.214-1.881.476-2.858.714a12.922,12.922,0,0,1-1.6.238c.691-.071,1.381-.143,2.167-.214a7.316,7.316,0,0,0,1.667-.452,16.129,16.129,0,0,1,2.1-.6c.238-.071.238.286.714.143,1.143-.262,2.119-.548,3.215-.714C52.582,226.584,53.416,226.87,53.892,226.727Z" transform="translate(-32.722 -172.01)"/><path class="a" d="M9.677,244.014a19.971,19.971,0,0,0-3.977.5c.1.071.1.19.476.19.238-.1.714-.262.714-.262a11.461,11.461,0,0,0,3.429-.548,4.4,4.4,0,0,1-.548-.1C9.129,243.943,9.081,244.062,9.677,244.014Z" transform="translate(-4.914 -185.726)"/><path class="a" d="M2.4,246.891h.024c.262-.048.5-.119.762-.167l-.024-.024C2.9,246.771,2.662,246.819,2.4,246.891Z" transform="translate(-2.4 -187.935)"/><path class="a" d="M145.529,58.64c-2.881-1.881-5.477-1.667-11.573-3.286,3.167.881-4.143.119-8.1-1.238-6-2.215-14.955-1.953-22.575-2.881-1.905-.238-3.953-.262-6.239-.429-1.476-.143-2.953-.262-4.405-.381s-2.929-.143-4.358-.214c-2.524-.071-5.025-.167-7.549-.191a226.489,226.489,0,0,1,3.072-39.791c1.334-.024,2.643-.071,4-.1,1.667-.048,3.215-.167,4.691-.31s2.905-.4,4.286-.548c2.024-.191,4.215-.119,5.858-.238,1.31-.071,2.5-.167,3.643-.31,1.143-.167,2.238-.333,3.286-.524-1.191.143-2.215.286-3.286.429-1.072.119-2.167.214-3.5.31-1.786.119,1.214-.548,2.381-.714.5-.1,1.31.238,1.81.1,1.1-.1,2.1-.357,3.239-.572.5-.119.476.238.714.167,1.6-.238,2.786-.81,3.81-.81.786-.024,1.476-.024,2.167-.048.429-.024.857-.048,1.31-.1.286-.048.572-.119.857-.167,2.072-.476,4.453-1,6.691-1.453l-.024-.024a19.934,19.934,0,0,1-3.977.31c.6,0,.548.119-.119.214-.191-.048-.357-.071-.548-.119a10.793,10.793,0,0,1,3.453-.4s.5-.143.738-.214c.381,0,.381.119.476.191.262-.048.5-.1.762-.143-.572-.1-2.31-.1-2.31-.1-1.643.214-3.262.452-4.834.643-1.572.143-3.12.286-4.667.4a1.324,1.324,0,0,1-.714.167c-.238-.048-.5-.048-.738-.071-.452.048-.9.071-1.334.119-.143.024-.31.048-.476.071h-.024c-.238.071-.167.119,0,.143.119.024.214.048.333.071-.1-.024-.238-.048-.333-.071a3.635,3.635,0,0,0-.738-.024c-.167.024-.357.048-.548.071.143-.024.262-.048.4-.071h.143c.214-.024.4-.071.6-.1h0c.048,0,.1-.024.143-.024.071-.024.143-.024.214-.048-1.024.071-2.024.167-3.048.238-.238.024-.452.071-.643.1a4.99,4.99,0,0,1-1.929.1,4.215,4.215,0,0,1-.548.024l.119.024c-.071,0-.143-.024-.214-.024-.762.024-1.548.048-2.31.1-1.5.048-3.024.119-4.6.167-10.025.381-19.265.476-29.671.214-5.62-.31-11.025-.548-16.312-1.143C42.085,5.18,32.417,4.8,21.963,2.489c-2-.452-4.882-.857-7.763-1.31C12.771.965,11.343.751,10.033.537s-2.5-.4-3.477-.572C1.317-.392,3.651,1.632,3.889,1.775,6.771,3.656,9.366,3.442,15.462,5.061c-3.167-.881,4.143-.119,8.1,1.238,6,2.215,14.955,1.953,22.575,2.881,1.905.238,3.953.262,6.239.429,1.476.143,2.953.262,4.405.381s2.929.143,4.358.214c1.715.048,3.429.119,5.12.143a226.127,226.127,0,0,1,3.072,39.744h-.833l-2.262.071c-1.524.024-3.072.071-4.62.1-1.667.048-3.215.167-4.691.31s-2.905.4-4.286.548c-2.024.191-4.215.119-5.858.238-1.31.071-2.5.167-3.643.31-1.143.167-2.238.333-3.286.524,1.191-.143,2.215-.286,3.286-.429,1.072-.119,2.167-.214,3.5-.31,1.786-.119-1.214.548-2.381.714-.5.1-1.31-.238-1.81-.1-1.1.1-2.1.357-3.239.572-.5.119-.476-.238-.714-.167-1.6.238-2.786.81-3.81.81-.786.024-1.476.024-2.167.048-.429.024-.857.048-1.31.1-.286.048-.572.119-.857.167-2.072.476-4.453,1-6.691,1.453l.024.024a19.935,19.935,0,0,1,3.977-.31c-.6,0-.548-.119.119-.214.191.048.357.071.548.119a10.793,10.793,0,0,1-3.453.4s-.5.143-.738.214c-.381,0-.381-.119-.476-.191-.262.048-.5.1-.762.143.572.1,2.31.1,2.31.1,1.643-.214,3.262-.452,4.834-.643,1.572-.143,3.12-.286,4.667-.4a1.324,1.324,0,0,1,.714-.167c.238.048.5.048.738.071.452-.048.9-.071,1.334-.119.143-.024.31-.048.476-.071h.024c.238-.071.167-.119,0-.143-.119-.024-.214-.048-.333-.071.1.024.238.048.333.071a3.635,3.635,0,0,0,.738.024c.167-.024.357-.048.548-.071-.143.024-.286.048-.4.071h-.143c-.214.024-.4.071-.6.1h0c-.048,0-.1.024-.143.024-.071.024-.143.024-.214.048,1.024-.071,2.024-.167,3.048-.238.238-.024.452-.071.643-.1a4.989,4.989,0,0,1,1.929-.1,4.215,4.215,0,0,1,.548-.024l-.119-.024c.071,0,.143.024.214.024.762-.024,1.548-.048,2.31-.1,1.5-.048,3.024-.119,4.6-.167,10.025-.381,19.265-.476,29.671-.214,5.62.31,11.025.548,16.312,1.143,10.525,1.024,20.193,1.4,30.647,3.715,2,.452,4.882.857,7.763,1.31,1.429.214,2.858.429,4.167.643s2.5.4,3.477.572C148.124,60.831,145.767,58.807,145.529,58.64ZM100.26,7.323A8.487,8.487,0,0,1,97.808,7.3,5.609,5.609,0,0,1,100.26,7.323ZM39.275,53.759Zm9.882-.667a8.487,8.487,0,0,1,2.453.024A5.278,5.278,0,0,1,49.158,53.092ZM78.8,10.324c-.643,6.263-.643,12.549-.714,18.836a174.264,174.264,0,0,0,.929,20.86l-8,.071a175.014,175.014,0,0,0,.929-20.932c-.071-6.263-.071-12.526-.691-18.765l7.406-.071Z" transform="translate(-2.984 0.077)"/><path class="a" d="M550.824,232.243c-.143-.048-.333-.1-.524-.143C550.467,232.148,550.633,232.2,550.824,232.243Z" transform="translate(-419.829 -176.812)"/></g><g transform="translate(0 24.373)"><path class="b" d="M0,102.6v13.026H56.794V102.6H0Zm9.573,3.286H7.025v7.382H5.953v-7.382H3.429v-.9H9.573v.9Zm9.025,6.668a4.184,4.184,0,0,1-2.858.786,13.042,13.042,0,0,1-1.667-.1v-8.168a10.845,10.845,0,0,1,1.953-.167,3.549,3.549,0,0,1,2.286.6A1.736,1.736,0,0,1,19,106.982a1.98,1.98,0,0,1-1.4,1.834v.024a2.142,2.142,0,0,1,1.715,2.072A2.345,2.345,0,0,1,18.6,112.554Zm11.93.714h-1v-3.524c0-1.334.024-2.334.1-3.381l-.048-.024a23.256,23.256,0,0,1-1.548,2.786l-2.6,4.12H24.289v-8.287h1v3.5c0,1.31-.024,2.405-.1,3.5l.024.024a30.706,30.706,0,0,1,1.548-2.738l2.691-4.263h1.072Zm11.621,0H41.077v-3.905H37.053v3.882H35.981v-8.287h1.072v3.477h4.024v-3.477h1.072Zm9.239-.786a4.609,4.609,0,0,0,1.738-.333l.214.857a5.466,5.466,0,0,1-2.191.4,3.875,3.875,0,0,1-4.1-4.191,4.131,4.131,0,0,1,4.334-4.358,4.219,4.219,0,0,1,1.976.381l-.262.881a3.967,3.967,0,0,0-1.667-.333A3.082,3.082,0,0,0,48.2,109.22,3.007,3.007,0,0,0,51.388,112.482Z" transform="translate(0 -102.6)"/><path class="b" d="M64.481,130.7H63.6v3.167a4.781,4.781,0,0,0,.9.048c1.119,0,2.119-.4,2.119-1.619C66.624,131.152,65.648,130.7,64.481,130.7Z" transform="translate(-48.455 -124.009)"/><path class="b" d="M66.286,117.057c0-.976-.738-1.357-1.834-1.357a5.836,5.836,0,0,0-.953.071v2.667h.976C65.619,118.462,66.286,117.867,66.286,117.057Z" transform="translate(-48.379 -112.581)"/></g><g transform="translate(87.679 24.373)"><path class="b" d="M520.267,115.6c-1.762,0-2.667,1.643-2.667,3.453,0,1.762.953,3.358,2.643,3.358s2.667-1.572,2.667-3.453C522.91,117.315,522.053,115.6,520.267,115.6Z" transform="translate(-482.023 -112.504)"/><path class="b" d="M478.3,115.8a4.174,4.174,0,0,0-1,.1v3.215a3.111,3.111,0,0,0,.881.1c1.286,0,2.072-.619,2.072-1.762C480.277,116.324,479.491,115.8,478.3,115.8Z" transform="translate(-451.32 -112.657)"/><path class="b" d="M368.2,102.6v13.026h56.794V102.6H368.2Zm7.906,9.882a4.609,4.609,0,0,0,1.738-.333l.214.857a5.466,5.466,0,0,1-2.191.4,3.875,3.875,0,0,1-4.1-4.191,4.131,4.131,0,0,1,4.334-4.358,4.219,4.219,0,0,1,1.976.381l-.262.881a3.967,3.967,0,0,0-1.667-.333,3.082,3.082,0,0,0-3.239,3.429A3,3,0,0,0,376.106,112.482Zm12.5-6.62h-2.524v7.382h-1.1v-7.382h-2.524v-.9h6.144Zm8.977,3.239a3.483,3.483,0,0,1-2.524.9,4.614,4.614,0,0,1-.857-.071v3.334h-1.072v-8.192a11.4,11.4,0,0,1,2.048-.167,3.414,3.414,0,0,1,2.334.691,2.256,2.256,0,0,1,.714,1.738A2.494,2.494,0,0,1,397.585,109.1Zm8.787,4.286c-2.191,0-3.739-1.691-3.739-4.215,0-2.643,1.643-4.358,3.858-4.358,2.262,0,3.739,1.738,3.739,4.191C410.23,111.887,408.492,113.387,406.372,113.387Zm15.026-.119h-1v-3.524c0-1.334.024-2.334.1-3.381l-.048-.024a23.258,23.258,0,0,1-1.548,2.786l-2.6,4.12h-1.143v-8.287h1v3.5c0,1.31-.024,2.405-.1,3.5l.024.024a30.7,30.7,0,0,1,1.548-2.738l2.691-4.263H421.4Z" transform="translate(-368.2 -102.6)"/></g><path class="a" d="M561.3,87.6s2,5.929,12.1,0C573.4,87.6,564.8,91.005,561.3,87.6Z" transform="translate(-427.638 -66.799)"/></g></svg>