<svg xmlns="http://www.w3.org/2000/svg" viewBox="0 0 140.7 16.59"><defs><style>.a{fill:#fff;}</style></defs><g transform="translate(0.2 0.09)"><path class="a" d="M-.1,1.1c0,.1-.1.1-.1.2V15.2c0,.3.1.5.5.5H2.8c.8,0,.8,0,.8-.8V4.7c0-.5.1-.7.6-.7H7.6c.9,0,.9,0,.9.8V14.9c0,.5.1.7.6.7h1.6c1.5,0,1.5,0,1.5-1.5V4.6c0-.2.2-.6.3-.6,1.1,0,2.2,0,3.3.1a1.11,1.11,0,0,1,1.1,1.1A11.019,11.019,0,0,1,17.1,7v8c0,.4.1.5.5.5h2.8c.3,0,.5-.1.5-.5,0-3.4,0-6.7-.2-10a3.759,3.759,0,0,0-2.9-3.7A23.4,23.4,0,0,0,14,1H.6A1.483,1.483,0,0,0-.1,1.1Z"/><path class="a" d="M77.3,16.2H72.2V6.1c0-1.1-.2-1.3-1.3-1.4H68.7V16.2H63.6V4.7H60.2V16.2H55V.4c.1,0,.3-.1.4-.1H71.6a6.018,6.018,0,0,1,4.1,1.4,4.974,4.974,0,0,1,1.5,3.8C77.3,9.2,77.3,12.7,77.3,16.2Z"/><path class="a" d="M140.5.4V4.7h-4a19.269,19.269,0,0,0-2.4.1,2.506,2.506,0,0,0-2.5,2.3h0a8.854,8.854,0,0,0,0,2.3,2.7,2.7,0,0,0,2.9,2.5h5.9v4.3h-1.6c-2,0-3.9,0-5.9-.1a6.73,6.73,0,0,1-6.4-5.6,8.869,8.869,0,0,1,1.6-7.7A6.983,6.983,0,0,1,133.2.3C135.6.3,138,.4,140.5.4Z"/><path class="a" d="M101.8,16.2h-5V.4h7.9a5.019,5.019,0,0,1,1.2.2c1.7.4,2.5,1.4,2.7,3.4.1,1.2,0,2.4,0,3.7h-4.9V5.2c0-.8-.1-.8-.9-.9h-1V16.2Z"/><path class="a" d="M53.6,7.6H48.7V5.2c0-.9-.1-.9-.9-1h-1V16.1h-5V.4c.1,0,.2-.1.3-.1h7.7A5.019,5.019,0,0,1,51,.5a3.255,3.255,0,0,1,2.6,3.4C53.6,5.1,53.6,6.3,53.6,7.6Z"/><path class="a" d="M39.3,5.3a4.642,4.642,0,0,0-3-4.3A5.834,5.834,0,0,0,33.7.4c-3.1-.1-6.2,0-9.3,0h-.2V4.5h6.9a7.8,7.8,0,0,1,2.2.3c.7.2.9.6.8,1.4H32.4c-1.7.1-3.5.1-5.2.3a4.056,4.056,0,0,0-3.8,3.3,9.417,9.417,0,0,0-.1,2.9,3.938,3.938,0,0,0,3.1,3.4,5.537,5.537,0,0,0,1.8.2H39.3V13.9A82.232,82.232,0,0,0,39.3,5.3Zm-6.4,6.8H31.7V12H29.1c-.4,0-.7-.2-.7-.6s0-.9.5-1.1a5.853,5.853,0,0,1,1.3-.2h3.6c.4,0,.5.1.5.5C34.3,12.1,34.4,12.1,32.9,12.1Z"/><path class="a" d="M122,1.1a9.051,9.051,0,0,0-8.6-.2,7.322,7.322,0,0,0-4.3,6,8.78,8.78,0,0,0,1.3,6.3,7.945,7.945,0,0,0,7,3.3c.7-.1,1.4-.1,2.1-.2a7.258,7.258,0,0,0,6.2-6.8A7.75,7.75,0,0,0,122,1.1Zm-1.3,9.8a3.788,3.788,0,0,1-6.8-.4,6.356,6.356,0,0,1-.1-4.3,3.576,3.576,0,0,1,4.1-2.5A3.508,3.508,0,0,1,121,6.6c.1.5.1,1.1.2,1.6.1,0,.1,0,.1.1A5.834,5.834,0,0,1,120.7,10.9Z"/><path class="a" d="M92.4,1.6a9.646,9.646,0,0,0-10.9.2,7.874,7.874,0,0,0-2.8,7,7.493,7.493,0,0,0,2.2,5.3c2.9,2.7,6.4,2.9,9.9,1.6,3-1.1,4.7-3.9,4.7-7.5A7.652,7.652,0,0,0,92.4,1.6Zm-1.7,8.5a3.633,3.633,0,0,1-4.1,2.8,3.527,3.527,0,0,1-3.3-3.1,6.638,6.638,0,0,1-.1-1.3,5.109,5.109,0,0,1,1.4-3.9c1.5-1.4,5.2-1.3,6.1,1.7A7,7,0,0,1,90.7,10.1Z"/></g></svg>